<?xml version="1.0" encoding="UTF-8"?>
<!DOCTYPE svg PUBLIC "-//W3C//DTD SVG 1.1//EN" "http://www.w3.org/Graphics/SVG/1.1/DTD/svg11.dtd">
<svg xmlns="http://www.w3.org/2000/svg" version="1.1" width="2604px" height="1562px" style="shape-rendering:geometricPrecision; text-rendering:geometricPrecision; image-rendering:optimizeQuality; fill-rule:evenodd; clip-rule:evenodd" xmlns:xlink="http://www.w3.org/1999/xlink">
<g><path style="opacity:1" fill="#fefefe" d="M -0.5,-0.5 C 867.5,-0.5 1735.5,-0.5 2603.5,-0.5C 2603.5,520.167 2603.5,1040.83 2603.5,1561.5C 1735.5,1561.5 867.5,1561.5 -0.5,1561.5C -0.5,1040.83 -0.5,520.167 -0.5,-0.5 Z"/></g>
<g><path style="opacity:1" fill="#fbecd4" d="M 1205.5,333.5 C 1220.33,332.339 1235.33,332.172 1250.5,333C 1255.05,333.429 1259.38,334.262 1263.5,335.5C 1257.97,335.821 1252.64,335.488 1247.5,334.5C 1233.68,333.504 1219.68,333.171 1205.5,333.5 Z"/></g>
<g><path style="opacity:1" fill="#e6be8f" d="M 1205.5,333.5 C 1219.68,333.171 1233.68,333.504 1247.5,334.5C 1226.15,334.276 1204.82,334.609 1183.5,335.5C 1190.6,333.895 1197.94,333.228 1205.5,333.5 Z"/></g>
<g><path style="opacity:1" fill="#eabe89" d="M 1154.5,338.5 C 1142.79,341.756 1130.79,344.09 1118.5,345.5C 1118.5,346.5 1118.5,347.5 1118.5,348.5C 1121.5,348.5 1124.5,348.5 1127.5,348.5C 1125,349.371 1122.33,350.037 1119.5,350.5C 1114.42,348.205 1109.08,347.872 1103.5,349.5C 1119.94,343.81 1136.94,340.143 1154.5,338.5 Z"/></g>
<g><path style="opacity:1" fill="#e9c092" d="M 1215.5,346.5 C 1199.63,348.027 1183.63,349.694 1167.5,351.5C 1168.23,349.955 1169.56,349.122 1171.5,349C 1186.15,347.866 1200.82,347.032 1215.5,346.5 Z"/></g>
<g><path style="opacity:1" fill="#f3b66f" d="M 1215.5,346.5 C 1235.21,346.313 1254.88,347.146 1274.5,349C 1268.66,350.38 1262.66,351.213 1256.5,351.5C 1239.83,351.5 1223.17,351.5 1206.5,351.5C 1196.85,352.121 1187.18,352.621 1177.5,353C 1174.43,354.858 1171.1,356.024 1167.5,356.5C 1167.5,357.5 1167.5,358.5 1167.5,359.5C 1165.9,359.232 1164.57,359.566 1163.5,360.5C 1161.86,362.081 1159.86,362.747 1157.5,362.5C 1156.5,362.5 1155.5,362.5 1154.5,362.5C 1154.41,359.261 1155.08,356.261 1156.5,353.5C 1158.18,353.715 1159.18,353.048 1159.5,351.5C 1162.17,351.5 1164.83,351.5 1167.5,351.5C 1183.63,349.694 1199.63,348.027 1215.5,346.5 Z"/></g>
<g><path style="opacity:1" fill="#f1b771" d="M 1119.5,350.5 C 1115.6,351.492 1111.6,352.492 1107.5,353.5C 1104.1,353.82 1100.77,353.487 1097.5,352.5C 1099.97,352.036 1101.97,351.036 1103.5,349.5C 1109.08,347.872 1114.42,348.205 1119.5,350.5 Z"/></g>
<g><path style="opacity:1" fill="#fdf6e4" d="M 1300.5,346.5 C 1335.84,353.223 1369.84,364.057 1402.5,379C 1401.83,379.167 1401.17,379.333 1400.5,379.5C 1376.83,370.055 1352.49,362.389 1327.5,356.5C 1311.66,352.818 1295.66,350.152 1279.5,348.5C 1287.64,348.062 1295.64,348.729 1303.5,350.5C 1304.83,350.333 1306.17,350.167 1307.5,350C 1305.03,348.979 1302.7,347.812 1300.5,346.5 Z"/></g>
<g><path style="opacity:1" fill="#f1c087" d="M 1215.5,346.5 C 1226.66,345.341 1237.99,345.174 1249.5,346C 1259.63,346.999 1269.63,347.833 1279.5,348.5C 1295.66,350.152 1311.66,352.818 1327.5,356.5C 1323.83,356.5 1320.17,356.5 1316.5,356.5C 1316.5,357.5 1316.5,358.5 1316.5,359.5C 1296.47,355.998 1276.47,353.331 1256.5,351.5C 1262.66,351.213 1268.66,350.38 1274.5,349C 1254.88,347.146 1235.21,346.313 1215.5,346.5 Z"/></g>
<g><path style="opacity:1" fill="#f7c182" d="M 1206.5,351.5 C 1206.84,352.338 1207.51,352.672 1208.5,352.5C 1213.98,353.489 1219.64,353.822 1225.5,353.5C 1225.5,354.833 1225.5,356.167 1225.5,357.5C 1218.83,357.666 1212.16,357.5 1205.5,357C 1197.28,354.132 1188.95,353.799 1180.5,356C 1181.03,356.692 1181.69,357.192 1182.5,357.5C 1184.77,356.456 1187.1,356.289 1189.5,357C 1187.5,358.019 1185.5,358.852 1183.5,359.5C 1176.85,360.139 1170.19,360.473 1163.5,360.5C 1164.57,359.566 1165.9,359.232 1167.5,359.5C 1167.5,358.5 1167.5,357.5 1167.5,356.5C 1171.1,356.024 1174.43,354.858 1177.5,353C 1187.18,352.621 1196.85,352.121 1206.5,351.5 Z"/></g>
<g><path style="opacity:1" fill="#f4c48b" d="M 1159.5,351.5 C 1159.18,353.048 1158.18,353.715 1156.5,353.5C 1155.08,356.261 1154.41,359.261 1154.5,362.5C 1155.5,362.5 1156.5,362.5 1157.5,362.5C 1149.41,363.652 1141.41,365.319 1133.5,367.5C 1132.5,367.5 1131.5,367.5 1130.5,367.5C 1130.3,365.61 1130.96,364.11 1132.5,363C 1131.93,361.795 1131.26,360.628 1130.5,359.5C 1126.91,360.426 1123.24,360.759 1119.5,360.5C 1132.48,356.501 1145.81,353.501 1159.5,351.5 Z"/></g>
<g><path style="opacity:1" fill="#fef7e3" d="M 1279.5,362.5 C 1272.05,362.929 1264.72,362.429 1257.5,361C 1226.15,360.117 1194.82,360.45 1163.5,362C 1153.88,364.889 1143.88,366.722 1133.5,367.5C 1141.41,365.319 1149.41,363.652 1157.5,362.5C 1159.86,362.747 1161.86,362.081 1163.5,360.5C 1170.19,360.473 1176.85,360.139 1183.5,359.5C 1215.77,357.393 1247.77,358.393 1279.5,362.5 Z"/></g>
<g><path style="opacity:1" fill="#efc492" d="M 1103.5,349.5 C 1101.97,351.036 1099.97,352.036 1097.5,352.5C 1100.77,353.487 1104.1,353.82 1107.5,353.5C 1076.87,361.809 1047.54,373.475 1019.5,388.5C 1019.92,386.219 1019.26,384.552 1017.5,383.5C 1041.32,370.386 1066.32,359.886 1092.5,352C 1096.11,350.85 1099.78,350.017 1103.5,349.5 Z"/></g>
<g><path style="opacity:1" fill="#fefefe" d="M 1279.5,362.5 C 1293.01,364.186 1306.35,366.519 1319.5,369.5C 1398.19,388.967 1466.53,426.634 1524.5,482.5C 1572.42,531.429 1608.09,588.096 1631.5,652.5C 1633.77,661.644 1636.44,670.644 1639.5,679.5C 1640.5,684.824 1641.5,690.157 1642.5,695.5C 1640.69,696.024 1639.03,696.691 1637.5,697.5C 1598.24,708.697 1559.24,720.697 1520.5,733.5C 1518.69,734.024 1517.03,734.691 1515.5,735.5C 1464.34,752.165 1413.34,769.332 1362.5,787C 1352.43,789.262 1348.93,785.429 1352,775.5C 1357.67,758.5 1363.33,741.5 1369,724.5C 1371.87,715.194 1373.7,705.694 1374.5,696C 1373.05,680.249 1364.38,673.582 1348.5,676C 1336.33,681.585 1325.33,688.918 1315.5,698C 1292.04,719.621 1269.04,741.787 1246.5,764.5C 1246.17,764.167 1245.83,763.833 1245.5,763.5C 1262.5,730.671 1275.67,696.337 1285,660.5C 1288.11,637.942 1278.28,627.109 1255.5,628C 1248.46,630.057 1242.12,633.391 1236.5,638C 1229.97,644.198 1223.8,650.698 1218,657.5C 1194.17,691.821 1170.84,726.488 1148,761.5C 1141,770.833 1134,780.167 1127,789.5C 1125.74,791.746 1123.91,793.079 1121.5,793.5C 1121.17,787.012 1122,780.678 1124,774.5C 1139.17,726.664 1156.5,679.664 1176,633.5C 1176.63,631.365 1176.3,629.365 1175,627.5C 1165.68,621.793 1155.85,620.959 1145.5,625C 1119.43,644.205 1091.1,659.538 1060.5,671C 1014.23,688.535 967.228,703.868 919.5,717C 883.858,726.66 848.192,736.16 812.5,745.5C 810.901,745.232 809.568,745.566 808.5,746.5C 806.883,747.038 805.216,747.371 803.5,747.5C 804.418,731.41 806.085,715.41 808.5,699.5C 811.366,683.156 815.366,667.156 820.5,651.5C 823.759,639.667 828.092,628.334 833.5,617.5C 836.972,611.229 840.472,604.895 844,598.5C 845.759,594.991 846.926,591.325 847.5,587.5C 851.806,577.551 857.14,568.218 863.5,559.5C 864.5,559.5 865.5,559.5 866.5,559.5C 868.389,556.046 870.056,552.379 871.5,548.5C 872.325,547.614 873.325,547.281 874.5,547.5C 874.238,546.022 874.571,544.689 875.5,543.5C 882.478,534.89 888.978,525.89 895,516.5C 895.483,515.552 895.649,514.552 895.5,513.5C 895.5,512.167 896.167,511.5 897.5,511.5C 902.533,506.468 907.199,501.135 911.5,495.5C 911.5,495.167 911.5,494.833 911.5,494.5C 914.731,492.78 917.564,490.447 920,487.5C 921.644,484.689 923.81,482.356 926.5,480.5C 927.127,479.583 927.461,478.583 927.5,477.5C 928.973,475.605 930.64,473.939 932.5,472.5C 937.563,467.432 942.896,462.765 948.5,458.5C 952.303,457.51 955.47,455.51 958,452.5C 958.333,452.833 958.667,453.167 959,453.5C 960.049,451.893 961.549,451.227 963.5,451.5C 966.961,443.543 972.961,438.043 981.5,435C 985.361,432.304 988.694,429.137 991.5,425.5C 1000.27,418.582 1009.61,412.582 1019.5,407.5C 1027.41,404.044 1035.07,400.377 1042.5,396.5C 1049.66,393.676 1056.66,390.676 1063.5,387.5C 1072.25,384.474 1080.91,381.474 1089.5,378.5C 1090.71,377.766 1092.04,377.433 1093.5,377.5C 1100.85,374.907 1108.18,372.574 1115.5,370.5C 1120.46,369.292 1125.46,368.292 1130.5,367.5C 1131.5,367.5 1132.5,367.5 1133.5,367.5C 1143.88,366.722 1153.88,364.889 1163.5,362C 1194.82,360.45 1226.15,360.117 1257.5,361C 1264.72,362.429 1272.05,362.929 1279.5,362.5 Z"/></g>
<g><path style="opacity:1" fill="#f3c691" d="M 1208.5,352.5 C 1246.66,351.763 1284.33,355.596 1321.5,364C 1323.61,364.845 1325.61,365.678 1327.5,366.5C 1323.79,365.707 1320.12,365.707 1316.5,366.5C 1317.34,367.735 1318.34,368.735 1319.5,369.5C 1306.35,366.519 1293.01,364.186 1279.5,362.5C 1247.77,358.393 1215.77,357.393 1183.5,359.5C 1185.5,358.852 1187.5,358.019 1189.5,357C 1187.1,356.289 1184.77,356.456 1182.5,357.5C 1181.69,357.192 1181.03,356.692 1180.5,356C 1188.95,353.799 1197.28,354.132 1205.5,357C 1212.16,357.5 1218.83,357.666 1225.5,357.5C 1225.5,356.167 1225.5,354.833 1225.5,353.5C 1219.64,353.822 1213.98,353.489 1208.5,352.5 Z"/></g>
<g><path style="opacity:1" fill="#fef7e6" d="M 1206.5,351.5 C 1223.17,351.5 1239.83,351.5 1256.5,351.5C 1276.47,353.331 1296.47,355.998 1316.5,359.5C 1332.85,363.172 1349.18,367.338 1365.5,372C 1381.21,378.07 1396.88,384.237 1412.5,390.5C 1413.17,391.167 1413.83,391.833 1414.5,392.5C 1411.95,392.613 1409.62,391.946 1407.5,390.5C 1406.48,391.002 1406.31,391.668 1407,392.5C 1408.83,394.074 1410.99,394.907 1413.5,395C 1415.69,396.067 1417.36,397.567 1418.5,399.5C 1409.44,395.639 1400.44,391.472 1391.5,387C 1380.13,382.876 1368.8,378.542 1357.5,374C 1347.62,370.924 1337.62,368.424 1327.5,366.5C 1325.61,365.678 1323.61,364.845 1321.5,364C 1284.33,355.596 1246.66,351.763 1208.5,352.5C 1207.51,352.672 1206.84,352.338 1206.5,351.5 Z"/></g>
<g><path style="opacity:1" fill="#f1b46b" d="M 1130.5,367.5 C 1125.46,368.292 1120.46,369.292 1115.5,370.5C 1114.09,368.775 1113.59,366.775 1114,364.5C 1116.13,363.385 1117.96,362.052 1119.5,360.5C 1123.24,360.759 1126.91,360.426 1130.5,359.5C 1131.26,360.628 1131.93,361.795 1132.5,363C 1130.96,364.11 1130.3,365.61 1130.5,367.5 Z"/></g>
<g><path style="opacity:1" fill="#f0b776" d="M 1247.5,334.5 C 1252.64,335.488 1257.97,335.821 1263.5,335.5C 1308.26,340.033 1351.26,350.866 1392.5,368C 1401.31,371.431 1409.65,375.598 1417.5,380.5C 1415.43,380.551 1413.6,379.885 1412,378.5C 1411.5,378.833 1411,379.167 1410.5,379.5C 1411.85,380.524 1412.52,381.857 1412.5,383.5C 1415.32,383.544 1417.65,384.544 1419.5,386.5C 1416.98,385.978 1414.31,385.978 1411.5,386.5C 1411.17,386.833 1410.83,387.167 1410.5,387.5C 1411.19,388.518 1411.86,389.518 1412.5,390.5C 1396.88,384.237 1381.21,378.07 1365.5,372C 1349.18,367.338 1332.85,363.172 1316.5,359.5C 1316.5,358.5 1316.5,357.5 1316.5,356.5C 1320.17,356.5 1323.83,356.5 1327.5,356.5C 1352.49,362.389 1376.83,370.055 1400.5,379.5C 1401.17,379.333 1401.83,379.167 1402.5,379C 1369.84,364.057 1335.84,353.223 1300.5,346.5C 1282.97,343.266 1265.3,340.933 1247.5,339.5C 1228.34,338.338 1209,338.171 1189.5,339C 1187.29,339.191 1185.29,339.691 1183.5,340.5C 1165.67,340.975 1148.34,343.642 1131.5,348.5C 1130.17,348.5 1128.83,348.5 1127.5,348.5C 1124.5,348.5 1121.5,348.5 1118.5,348.5C 1118.5,347.5 1118.5,346.5 1118.5,345.5C 1130.79,344.09 1142.79,341.756 1154.5,338.5C 1163.87,336.054 1173.54,335.054 1183.5,335.5C 1204.82,334.609 1226.15,334.276 1247.5,334.5 Z"/></g>
<g><path style="opacity:1" fill="#fef3d3" d="M 1183.5,340.5 C 1185.5,340.5 1187.5,340.5 1189.5,340.5C 1170.23,343.03 1150.89,345.697 1131.5,348.5C 1148.34,343.642 1165.67,340.975 1183.5,340.5 Z"/></g>
<g><path style="opacity:1" fill="#fad5a6" d="M 1247.5,339.5 C 1228.12,339.191 1208.79,339.525 1189.5,340.5C 1187.5,340.5 1185.5,340.5 1183.5,340.5C 1185.29,339.691 1187.29,339.191 1189.5,339C 1209,338.171 1228.34,338.338 1247.5,339.5 Z"/></g>
<g><path style="opacity:1" fill="#f2c48f" d="M 1119.5,360.5 C 1117.96,362.052 1116.13,363.385 1114,364.5C 1113.59,366.775 1114.09,368.775 1115.5,370.5C 1108.18,372.574 1100.85,374.907 1093.5,377.5C 1094.07,375.302 1094.07,372.969 1093.5,370.5C 1091.5,370.5 1089.5,370.5 1087.5,370.5C 1097.84,366.574 1108.5,363.241 1119.5,360.5 Z"/></g>
<g><path style="opacity:1" fill="#ecb575" d="M 1327.5,366.5 C 1337.62,368.424 1347.62,370.924 1357.5,374C 1368.8,378.542 1380.13,382.876 1391.5,387C 1400.44,391.472 1409.44,395.639 1418.5,399.5C 1452.25,416.933 1483.25,438.266 1511.5,463.5C 1510.5,463.5 1509.5,463.5 1508.5,463.5C 1510.12,467.642 1512.79,471.142 1516.5,474C 1518.22,475.559 1520.22,476.392 1522.5,476.5C 1522.7,478.685 1523.37,480.685 1524.5,482.5C 1466.53,426.634 1398.19,388.967 1319.5,369.5C 1318.34,368.735 1317.34,367.735 1316.5,366.5C 1320.12,365.707 1323.79,365.707 1327.5,366.5 Z"/></g>
<g><path style="opacity:1" fill="#ecb16c" d="M 1087.5,370.5 C 1089.5,370.5 1091.5,370.5 1093.5,370.5C 1094.07,372.969 1094.07,375.302 1093.5,377.5C 1092.04,377.433 1090.71,377.766 1089.5,378.5C 1087.41,378.682 1085.41,378.348 1083.5,377.5C 1082.61,376.675 1082.28,375.675 1082.5,374.5C 1085.07,374.262 1086.74,372.929 1087.5,370.5 Z"/></g>
<g><path style="opacity:1" fill="#f1c490" d="M 1087.5,370.5 C 1086.74,372.929 1085.07,374.262 1082.5,374.5C 1082.28,375.675 1082.61,376.675 1083.5,377.5C 1085.41,378.348 1087.41,378.682 1089.5,378.5C 1080.91,381.474 1072.25,384.474 1063.5,387.5C 1063.8,385.396 1063.47,383.396 1062.5,381.5C 1060.49,383.171 1058.16,383.838 1055.5,383.5C 1065.59,378.02 1076.25,373.686 1087.5,370.5 Z"/></g>
<g><path style="opacity:1" fill="#edb26d" d="M 1063.5,387.5 C 1056.66,390.676 1049.66,393.676 1042.5,396.5C 1041.39,395.054 1041.22,393.387 1042,391.5C 1045.65,389.223 1049.48,387.223 1053.5,385.5C 1054.3,385.043 1054.63,384.376 1054.5,383.5C 1054.83,383.5 1055.17,383.5 1055.5,383.5C 1058.16,383.838 1060.49,383.171 1062.5,381.5C 1063.47,383.396 1063.8,385.396 1063.5,387.5 Z"/></g>
<g><path style="opacity:1" fill="#fdfbf3" d="M 1247.5,339.5 C 1265.3,340.933 1282.97,343.266 1300.5,346.5C 1302.7,347.812 1305.03,348.979 1307.5,350C 1306.17,350.167 1304.83,350.333 1303.5,350.5C 1295.64,348.729 1287.64,348.062 1279.5,348.5C 1269.63,347.833 1259.63,346.999 1249.5,346C 1237.99,345.174 1226.66,345.341 1215.5,346.5C 1200.82,347.032 1186.15,347.866 1171.5,349C 1169.56,349.122 1168.23,349.955 1167.5,351.5C 1164.83,351.5 1162.17,351.5 1159.5,351.5C 1145.81,353.501 1132.48,356.501 1119.5,360.5C 1108.5,363.241 1097.84,366.574 1087.5,370.5C 1076.25,373.686 1065.59,378.02 1055.5,383.5C 1055.17,383.5 1054.83,383.5 1054.5,383.5C 1039.7,389.527 1025.7,396.861 1012.5,405.5C 975.539,424.784 942.539,449.451 913.5,479.5C 906.825,485.176 900.825,491.509 895.5,498.5C 890.889,502.375 886.722,506.708 883,511.5C 881.579,513.405 880.412,515.405 879.5,517.5C 876.785,519.902 874.285,522.568 872,525.5C 868.918,529.734 866.084,534.067 863.5,538.5C 854.265,549.954 846.265,562.288 839.5,575.5C 836.304,580.558 833.638,585.891 831.5,591.5C 829.588,593.657 827.921,595.991 826.5,598.5C 826.5,597.167 826.5,595.833 826.5,594.5C 827.167,592.5 827.833,590.5 828.5,588.5C 837.975,570.217 847.975,552.217 858.5,534.5C 900.14,472.524 953.807,423.858 1019.5,388.5C 1047.54,373.475 1076.87,361.809 1107.5,353.5C 1111.6,352.492 1115.6,351.492 1119.5,350.5C 1122.33,350.037 1125,349.371 1127.5,348.5C 1128.83,348.5 1130.17,348.5 1131.5,348.5C 1150.89,345.697 1170.23,343.03 1189.5,340.5C 1208.79,339.525 1228.12,339.191 1247.5,339.5 Z"/></g>
<g><path style="opacity:1" fill="#efc08c" d="M 1054.5,383.5 C 1054.63,384.376 1054.3,385.043 1053.5,385.5C 1049.48,387.223 1045.65,389.223 1042,391.5C 1041.22,393.387 1041.39,395.054 1042.5,396.5C 1035.07,400.377 1027.41,404.044 1019.5,407.5C 1019.5,406.5 1019.5,405.5 1019.5,404.5C 1017.19,404.993 1014.86,405.326 1012.5,405.5C 1025.7,396.861 1039.7,389.527 1054.5,383.5 Z"/></g>
<g><path style="opacity:1" fill="#e9b171" d="M 1019.5,407.5 C 1009.61,412.582 1000.27,418.582 991.5,425.5C 975.897,434.807 961.563,445.807 948.5,458.5C 942.896,462.765 937.563,467.432 932.5,472.5C 932.505,469 930.838,467.5 927.5,468C 922.94,472.069 918.274,475.902 913.5,479.5C 942.539,449.451 975.539,424.784 1012.5,405.5C 1014.86,405.326 1017.19,404.993 1019.5,404.5C 1019.5,405.5 1019.5,406.5 1019.5,407.5 Z"/></g>
<g><path style="opacity:1" fill="#fff8e4" d="M 991.5,425.5 C 988.694,429.137 985.361,432.304 981.5,435C 972.961,438.043 966.961,443.543 963.5,451.5C 961.549,451.227 960.049,451.893 959,453.5C 958.667,453.167 958.333,452.833 958,452.5C 955.47,455.51 952.303,457.51 948.5,458.5C 961.563,445.807 975.897,434.807 991.5,425.5 Z"/></g>
<g><path style="opacity:1" fill="#ffefd3" d="M 1519.5,450.5 C 1523.86,453.35 1527.86,456.85 1531.5,461C 1532.45,461.483 1533.45,461.649 1534.5,461.5C 1534.63,463.216 1534.96,464.883 1535.5,466.5C 1529.83,461.5 1524.5,456.167 1519.5,450.5 Z"/></g>
<g><path style="opacity:1" fill="#ebaf6c" d="M 1417.5,380.5 C 1454.91,398.872 1488.91,422.205 1519.5,450.5C 1524.5,456.167 1529.83,461.5 1535.5,466.5C 1535.5,466.833 1535.5,467.167 1535.5,467.5C 1536.09,468.767 1536.09,469.767 1535.5,470.5C 1533.88,469.846 1532.22,469.346 1530.5,469C 1531.65,468.086 1531.49,467.253 1530,466.5C 1529.01,467.171 1527.85,467.171 1526.5,466.5C 1500,443.508 1471.67,423.008 1441.5,405C 1432.61,400.605 1423.61,396.438 1414.5,392.5C 1413.83,391.833 1413.17,391.167 1412.5,390.5C 1411.86,389.518 1411.19,388.518 1410.5,387.5C 1410.83,387.167 1411.17,386.833 1411.5,386.5C 1414.31,385.978 1416.98,385.978 1419.5,386.5C 1417.65,384.544 1415.32,383.544 1412.5,383.5C 1412.52,381.857 1411.85,380.524 1410.5,379.5C 1411,379.167 1411.5,378.833 1412,378.5C 1413.6,379.885 1415.43,380.551 1417.5,380.5 Z"/></g>
<g><path style="opacity:1" fill="#e6ad6f" d="M 1017.5,383.5 C 1019.26,384.552 1019.92,386.219 1019.5,388.5C 953.807,423.858 900.14,472.524 858.5,534.5C 858.52,532.857 857.853,531.524 856.5,530.5C 857.127,529.583 857.461,528.583 857.5,527.5C 859.017,527.489 860.184,526.823 861,525.5C 863.77,520.918 866.27,516.251 868.5,511.5C 869.822,511.67 870.989,511.337 872,510.5C 873.497,505.832 876.33,502.166 880.5,499.5C 881.429,498.311 881.762,496.978 881.5,495.5C 885.497,492.029 889.163,488.196 892.5,484C 893.448,483.517 894.448,483.351 895.5,483.5C 895.5,482.167 895.5,480.833 895.5,479.5C 898.094,475.728 900.927,472.061 904,468.5C 905.886,465.758 908.386,464.091 911.5,463.5C 917.175,456.314 923.509,449.481 930.5,443C 957.507,420.143 986.507,400.31 1017.5,383.5 Z"/></g>
<g><path style="opacity:1" fill="#fdfaf2" d="M 1414.5,392.5 C 1423.61,396.438 1432.61,400.605 1441.5,405C 1471.67,423.008 1500,443.508 1526.5,466.5C 1557.64,496.285 1582.97,530.285 1602.5,568.5C 1602.18,570.048 1601.18,570.715 1599.5,570.5C 1576.09,530.079 1546.76,494.413 1511.5,463.5C 1483.25,438.266 1452.25,416.933 1418.5,399.5C 1417.36,397.567 1415.69,396.067 1413.5,395C 1410.99,394.907 1408.83,394.074 1407,392.5C 1406.31,391.668 1406.48,391.002 1407.5,390.5C 1409.62,391.946 1411.95,392.613 1414.5,392.5 Z"/></g>
<g><path style="opacity:1" fill="#d3ac84" d="M 895.5,479.5 C 895.5,480.833 895.5,482.167 895.5,483.5C 894.448,483.351 893.448,483.517 892.5,484C 889.163,488.196 885.497,492.029 881.5,495.5C 885.136,489.202 889.803,483.868 895.5,479.5 Z"/></g>
<g><path style="opacity:1" fill="#d3ae88" d="M 913.5,479.5 C 908.566,485.608 903.399,491.608 898,497.5C 897.329,498.252 896.496,498.586 895.5,498.5C 900.825,491.509 906.825,485.176 913.5,479.5 Z"/></g>
<g><path style="opacity:1" fill="#fff3d2" d="M 927.5,477.5 C 927.461,478.583 927.127,479.583 926.5,480.5C 923.81,482.356 921.644,484.689 920,487.5C 917.564,490.447 914.731,492.78 911.5,494.5C 916.611,488.601 921.944,482.934 927.5,477.5 Z"/></g>
<g><path style="opacity:1" fill="#d2ac87" d="M 895.5,498.5 C 890.859,505.469 885.526,511.803 879.5,517.5C 880.412,515.405 881.579,513.405 883,511.5C 886.722,506.708 890.889,502.375 895.5,498.5 Z"/></g>
<g><path style="opacity:1" fill="#d0ad83" d="M 881.5,495.5 C 881.762,496.978 881.429,498.311 880.5,499.5C 876.33,502.166 873.497,505.832 872,510.5C 870.989,511.337 869.822,511.67 868.5,511.5C 872.16,505.518 876.493,500.185 881.5,495.5 Z"/></g>
<g><path style="opacity:1" fill="#fff6d6" d="M 911.5,495.5 C 907.199,501.135 902.533,506.468 897.5,511.5C 901.136,505.202 905.803,499.868 911.5,495.5 Z"/></g>
<g><path style="opacity:1" fill="#d1ae8c" d="M 868.5,511.5 C 866.27,516.251 863.77,520.918 861,525.5C 860.184,526.823 859.017,527.489 857.5,527.5C 860.393,521.612 864.06,516.278 868.5,511.5 Z"/></g>
<g><path style="opacity:1" fill="#e0a76a" d="M 1526.5,466.5 C 1527.85,467.171 1529.01,467.171 1530,466.5C 1531.49,467.253 1531.65,468.086 1530.5,469C 1532.22,469.346 1533.88,469.846 1535.5,470.5C 1536.09,469.767 1536.09,468.767 1535.5,467.5C 1559.6,490.246 1580.27,515.579 1597.5,543.5C 1596.71,545.104 1595.38,545.771 1593.5,545.5C 1594.71,548.782 1595.88,552.116 1597,555.5C 1598.79,557.513 1600.12,557.513 1601,555.5C 1601.64,556.646 1602.48,557.646 1603.5,558.5C 1602.46,560.768 1602.29,563.101 1603,565.5C 1604.98,568.614 1606.48,571.947 1607.5,575.5C 1605.59,573.343 1603.92,571.009 1602.5,568.5C 1582.97,530.285 1557.64,496.285 1526.5,466.5 Z"/></g>
<g><path style="opacity:1" fill="#daa46e" d="M 857.5,527.5 C 857.461,528.583 857.127,529.583 856.5,530.5C 857.853,531.524 858.52,532.857 858.5,534.5C 847.975,552.217 837.975,570.217 828.5,588.5C 828.785,586.712 828.452,585.045 827.5,583.5C 823.495,590.678 820.162,598.178 817.5,606C 817.164,607.03 816.497,607.53 815.5,607.5C 825.863,578.769 839.863,552.102 857.5,527.5 Z"/></g>
<g><path style="opacity:1" fill="#fff6df" d="M 895.5,513.5 C 895.649,514.552 895.483,515.552 895,516.5C 888.978,525.89 882.478,534.89 875.5,543.5C 874.571,544.689 874.238,546.022 874.5,547.5C 873.325,547.281 872.325,547.614 871.5,548.5C 870.056,552.379 868.389,556.046 866.5,559.5C 865.5,559.5 864.5,559.5 863.5,559.5C 872.691,543.111 883.357,527.778 895.5,513.5 Z"/></g>
<g><path style="opacity:1" fill="#dea569" d="M 1511.5,463.5 C 1546.76,494.413 1576.09,530.079 1599.5,570.5C 1611.85,591.531 1622.35,613.531 1631,636.5C 1629.7,629.748 1627.86,623.081 1625.5,616.5C 1627.24,619.512 1629.07,622.512 1631,625.5C 1631.36,629.474 1632.52,633.141 1634.5,636.5C 1634.01,637.446 1633.68,638.446 1633.5,639.5C 1635.09,643.408 1635.92,647.408 1636,651.5C 1634.33,647.167 1632.67,642.833 1631,638.5C 1630.08,639.047 1629.24,639.713 1628.5,640.5C 1630.44,644.264 1631.44,648.264 1631.5,652.5C 1608.09,588.096 1572.42,531.429 1524.5,482.5C 1523.37,480.685 1522.7,478.685 1522.5,476.5C 1520.22,476.392 1518.22,475.559 1516.5,474C 1512.79,471.142 1510.12,467.642 1508.5,463.5C 1509.5,463.5 1510.5,463.5 1511.5,463.5 Z"/></g>
<g><path style="opacity:1" fill="#e0a05f" d="M 1597.5,543.5 C 1603.59,550.443 1608.75,558.11 1613,566.5C 1619.98,578.801 1626.15,591.468 1631.5,604.5C 1632.17,606.819 1632.33,609.153 1632,611.5C 1629.74,607.988 1627.24,604.654 1624.5,601.5C 1623.83,602.167 1623.17,602.833 1622.5,603.5C 1620,597.157 1616.83,591.157 1613,585.5C 1612.63,581.191 1610.79,577.857 1607.5,575.5C 1606.48,571.947 1604.98,568.614 1603,565.5C 1602.29,563.101 1602.46,560.768 1603.5,558.5C 1602.48,557.646 1601.64,556.646 1601,555.5C 1600.12,557.513 1598.79,557.513 1597,555.5C 1595.88,552.116 1594.71,548.782 1593.5,545.5C 1595.38,545.771 1596.71,545.104 1597.5,543.5 Z"/></g>
<g><path style="opacity:1" fill="#dfaf7d" d="M 863.5,538.5 C 861.664,541.183 860.664,544.183 860.5,547.5C 859.5,547.5 858.5,547.5 857.5,547.5C 857.215,549.288 857.548,550.955 858.5,552.5C 859.478,552.023 860.311,551.357 861,550.5C 857.559,558.704 853.059,566.37 847.5,573.5C 849.72,568.728 852.22,564.062 855,559.5C 855.251,557.567 855.751,555.734 856.5,554C 854.406,553.555 852.906,554.388 852,556.5C 848.74,562.778 845.573,569.111 842.5,575.5C 841.5,575.5 840.5,575.5 839.5,575.5C 846.265,562.288 854.265,549.954 863.5,538.5 Z"/></g>
<g><path style="opacity:1" fill="#fdf1dc" d="M 1602.5,568.5 C 1603.92,571.009 1605.59,573.343 1607.5,575.5C 1613.27,589.372 1619.27,603.039 1625.5,616.5C 1627.86,623.081 1629.7,629.748 1631,636.5C 1622.35,613.531 1611.85,591.531 1599.5,570.5C 1601.18,570.715 1602.18,570.048 1602.5,568.5 Z"/></g>
<g><path style="opacity:1" fill="#e0a361" d="M 932.5,472.5 C 930.64,473.939 928.973,475.605 927.5,477.5C 921.944,482.934 916.611,488.601 911.5,494.5C 911.5,494.833 911.5,495.167 911.5,495.5C 905.803,499.868 901.136,505.202 897.5,511.5C 896.167,511.5 895.5,512.167 895.5,513.5C 883.357,527.778 872.691,543.111 863.5,559.5C 857.14,568.218 851.806,577.551 847.5,587.5C 841.777,596.95 837.11,606.95 833.5,617.5C 828.092,628.334 823.759,639.667 820.5,651.5C 819.275,650.848 818.608,649.681 818.5,648C 819.031,645.183 819.364,642.35 819.5,639.5C 823.144,631.972 826.644,624.306 830,616.5C 830.333,616.833 830.667,617.167 831,617.5C 831.498,614.183 831.665,610.85 831.5,607.5C 832.5,607.5 833.5,607.5 834.5,607.5C 834.737,604.353 835.57,601.353 837,598.5C 839.785,591.596 843.119,584.929 847,578.5C 847.494,576.866 847.66,575.199 847.5,573.5C 853.059,566.37 857.559,558.704 861,550.5C 860.311,551.357 859.478,552.023 858.5,552.5C 857.548,550.955 857.215,549.288 857.5,547.5C 858.5,547.5 859.5,547.5 860.5,547.5C 860.664,544.183 861.664,541.183 863.5,538.5C 866.084,534.067 868.918,529.734 872,525.5C 874.285,522.568 876.785,519.902 879.5,517.5C 885.526,511.803 890.859,505.469 895.5,498.5C 896.496,498.586 897.329,498.252 898,497.5C 903.399,491.608 908.566,485.608 913.5,479.5C 918.274,475.902 922.94,472.069 927.5,468C 930.838,467.5 932.505,469 932.5,472.5 Z"/></g>
<g><path style="opacity:1" fill="#d3aa7f" d="M 847.5,573.5 C 847.66,575.199 847.494,576.866 847,578.5C 843.119,584.929 839.785,591.596 837,598.5C 835.57,601.353 834.737,604.353 834.5,607.5C 833.5,607.5 832.5,607.5 831.5,607.5C 834.983,599.037 838.65,590.704 842.5,582.5C 843.41,579.008 845.076,576.008 847.5,573.5 Z"/></g>
<g><path style="opacity:1" fill="#fef1d1" d="M 847.5,587.5 C 846.926,591.325 845.759,594.991 844,598.5C 840.472,604.895 836.972,611.229 833.5,617.5C 837.11,606.95 841.777,596.95 847.5,587.5 Z"/></g>
<g><path style="opacity:1" fill="#cea174" d="M 831.5,607.5 C 831.665,610.85 831.498,614.183 831,617.5C 830.667,617.167 830.333,616.833 830,616.5C 826.644,624.306 823.144,631.972 819.5,639.5C 822.138,628.244 826.138,617.578 831.5,607.5 Z"/></g>
<g><path style="opacity:1" fill="#050505" d="M 1515.5,735.5 C 1519.67,736.995 1523.01,739.662 1525.5,743.5C 1471.59,762.304 1417.92,781.804 1364.5,802C 1331.87,812.376 1321.37,801.543 1333,769.5C 1341.12,749.796 1348.46,729.796 1355,709.5C 1356.1,705.495 1355.26,701.995 1352.5,699C 1351.67,698.833 1350.83,698.667 1350,698.5C 1343.67,701.489 1337.83,705.322 1332.5,710C 1304.45,738.72 1276.45,767.387 1248.5,796C 1239.01,803.592 1228.34,805.592 1216.5,802C 1208.36,797.558 1205.2,790.725 1207,781.5C 1222.17,749.326 1236.17,716.659 1249,683.5C 1252.63,672.994 1255.63,662.327 1258,651.5C 1258.67,647.833 1258.67,644.167 1258,640.5C 1257.26,639.426 1256.26,638.759 1255,638.5C 1252.21,639.094 1249.71,640.261 1247.5,642C 1233.86,655.808 1222.02,670.975 1212,687.5C 1192.13,721.364 1171.46,754.697 1150,787.5C 1141.29,799.883 1131.46,811.383 1120.5,822C 1110.57,829.624 1101.07,829.124 1092,820.5C 1090.25,817.754 1089.25,814.754 1089,811.5C 1088.41,791.722 1091.07,772.389 1097,753.5C 1106.37,719.906 1116.54,686.906 1127.5,654.5C 1060.64,689.844 990.306,716.011 916.5,733C 878.38,742 840.38,750.833 802.5,759.5C 801.5,759.5 800.5,759.5 799.5,759.5C 796.67,759.963 794.003,760.629 791.5,761.5C 790.833,761.5 790.167,761.5 789.5,761.5C 786.72,762.078 784.053,762.745 781.5,763.5C 726.738,775.585 671.404,784.085 615.5,789C 559.063,795.533 505.063,787.199 453.5,764C 439.829,757.247 427.662,748.413 417,737.5C 412.618,730.621 414.118,725.455 421.5,722C 429.233,720.684 436.233,722.35 442.5,727C 469.396,753.118 501.396,769.784 538.5,777C 559.61,781.578 580.944,783.244 602.5,782C 639.143,779.861 675.476,775.194 711.5,768C 735.605,763.151 759.605,757.984 783.5,752.5C 786.33,752.037 788.997,751.371 791.5,750.5C 792.959,750.567 794.292,750.234 795.5,749.5C 798.152,749.59 800.485,748.924 802.5,747.5C 802.833,747.5 803.167,747.5 803.5,747.5C 805.216,747.371 806.883,747.038 808.5,746.5C 809.239,746.369 809.906,746.536 810.5,747C 807.872,748.626 805.539,750.626 803.5,753C 804,753.5 804.5,754 805,754.5C 808.112,751.899 810.612,748.899 812.5,745.5C 848.192,736.16 883.858,726.66 919.5,717C 967.228,703.868 1014.23,688.535 1060.5,671C 1091.1,659.538 1119.43,644.205 1145.5,625C 1155.85,620.959 1165.68,621.793 1175,627.5C 1176.3,629.365 1176.63,631.365 1176,633.5C 1156.5,679.664 1139.17,726.664 1124,774.5C 1122,780.678 1121.17,787.012 1121.5,793.5C 1123.91,793.079 1125.74,791.746 1127,789.5C 1134,780.167 1141,770.833 1148,761.5C 1170.84,726.488 1194.17,691.821 1218,657.5C 1223.8,650.698 1229.97,644.198 1236.5,638C 1242.12,633.391 1248.46,630.057 1255.5,628C 1278.28,627.109 1288.11,637.942 1285,660.5C 1275.67,696.337 1262.5,730.671 1245.5,763.5C 1245.83,763.833 1246.17,764.167 1246.5,764.5C 1269.04,741.787 1292.04,719.621 1315.5,698C 1325.33,688.918 1336.33,681.585 1348.5,676C 1364.38,673.582 1373.05,680.249 1374.5,696C 1373.7,705.694 1371.87,715.194 1369,724.5C 1363.33,741.5 1357.67,758.5 1352,775.5C 1348.93,785.429 1352.43,789.262 1362.5,787C 1413.34,769.332 1464.34,752.165 1515.5,735.5 Z"/></g>
<g><path style="opacity:1" fill="#d79b5f" d="M 1607.5,575.5 C 1610.79,577.857 1612.63,581.191 1613,585.5C 1616.83,591.157 1620,597.157 1622.5,603.5C 1623.17,602.833 1623.83,602.167 1624.5,601.5C 1627.24,604.654 1629.74,607.988 1632,611.5C 1632.33,609.153 1632.17,606.819 1631.5,604.5C 1645.05,631.817 1654.38,660.483 1659.5,690.5C 1657.83,691.167 1656.17,691.833 1654.5,692.5C 1653.13,683.659 1651.13,674.992 1648.5,666.5C 1643.57,649.221 1637.74,632.221 1631,615.5C 1636.82,633.115 1642.32,650.782 1647.5,668.5C 1647.58,671.206 1647.91,673.873 1648.5,676.5C 1648.38,680.042 1648.71,683.542 1649.5,687C 1648.4,689.271 1646.73,691.104 1644.5,692.5C 1643.35,689.253 1642.52,685.92 1642,682.5C 1641.15,681.429 1640.31,680.429 1639.5,679.5C 1636.44,670.644 1633.77,661.644 1631.5,652.5C 1631.44,648.264 1630.44,644.264 1628.5,640.5C 1629.24,639.713 1630.08,639.047 1631,638.5C 1632.67,642.833 1634.33,647.167 1636,651.5C 1635.92,647.408 1635.09,643.408 1633.5,639.5C 1633.68,638.446 1634.01,637.446 1634.5,636.5C 1632.52,633.141 1631.36,629.474 1631,625.5C 1629.07,622.512 1627.24,619.512 1625.5,616.5C 1619.27,603.039 1613.27,589.372 1607.5,575.5 Z"/></g>
<g><path style="opacity:1" fill="#080707" d="M 1663.5,699.5 C 1661.3,699.875 1659.3,700.542 1657.5,701.5C 1655.62,701.229 1654.29,701.896 1653.5,703.5C 1649.88,703.322 1646.54,703.989 1643.5,705.5C 1639.78,706.297 1636.11,707.297 1632.5,708.5C 1635.43,705.054 1638.93,701.388 1643,697.5C 1643.46,696.906 1643.63,696.239 1643.5,695.5C 1646.66,694.669 1649.66,693.669 1652.5,692.5C 1653.17,692.5 1653.83,692.5 1654.5,692.5C 1656.17,691.833 1657.83,691.167 1659.5,690.5C 1742.77,666.686 1827.44,649.186 1913.5,638C 1966.14,631.259 2018.81,630.925 2071.5,637C 2113.02,641.619 2151.52,654.785 2187,676.5C 2192.81,690.349 2188.31,696.515 2173.5,695C 2145.35,676.498 2114.68,663.831 2081.5,657C 2019.16,645.326 1956.5,643.326 1893.5,651C 1815.31,660.204 1738.64,676.371 1663.5,699.5 Z"/></g>
<g><path style="opacity:1" fill="#fefefe" d="M 1525.5,743.5 C 1526.17,743.167 1526.83,742.833 1527.5,742.5C 1561.12,731.293 1594.79,720.293 1628.5,709.5C 1630.1,709.768 1631.43,709.434 1632.5,708.5C 1636.11,707.297 1639.78,706.297 1643.5,705.5C 1644.69,705.97 1645.36,706.97 1645.5,708.5C 1651.29,738.553 1653.96,768.886 1653.5,799.5C 1651.35,813.341 1649.35,827.341 1647.5,841.5C 1647.5,842.5 1647.5,843.5 1647.5,844.5C 1645.53,852.65 1643.86,860.984 1642.5,869.5C 1635.51,896.425 1626.51,922.758 1615.5,948.5C 1603.21,974.764 1588.87,999.764 1572.5,1023.5C 1568.15,1028.53 1564.15,1033.86 1560.5,1039.5C 1537.46,1067.54 1511.8,1092.87 1483.5,1115.5C 1475.14,1120.68 1467.14,1126.34 1459.5,1132.5C 1457.33,1132.75 1455.66,1133.75 1454.5,1135.5C 1430.92,1150.29 1406.25,1162.96 1380.5,1173.5C 1371.01,1176.66 1361.67,1180 1352.5,1183.5C 1349.33,1184.27 1346.33,1185.27 1343.5,1186.5C 1334.06,1188.86 1324.73,1191.19 1315.5,1193.5C 1263.84,1204.38 1211.84,1206.38 1159.5,1199.5C 1158.5,1199.5 1157.5,1199.5 1156.5,1199.5C 1149.02,1197.86 1141.35,1196.53 1133.5,1195.5C 1125.23,1193.35 1116.9,1191.35 1108.5,1189.5C 1101.58,1187.25 1094.58,1185.25 1087.5,1183.5C 1079.58,1180.52 1071.58,1177.52 1063.5,1174.5C 1056.58,1171.31 1049.58,1168.31 1042.5,1165.5C 1034.57,1161.53 1026.57,1157.53 1018.5,1153.5C 946.296,1115.63 890.629,1060.96 851.5,989.5C 837.077,961.12 825.077,931.787 815.5,901.5C 811.558,886.392 808.558,871.059 806.5,855.5C 801.989,823.631 800.655,791.631 802.5,759.5C 840.38,750.833 878.38,742 916.5,733C 990.306,716.011 1060.64,689.844 1127.5,654.5C 1116.54,686.906 1106.37,719.906 1097,753.5C 1091.07,772.389 1088.41,791.722 1089,811.5C 1089.25,814.754 1090.25,817.754 1092,820.5C 1101.07,829.124 1110.57,829.624 1120.5,822C 1131.46,811.383 1141.29,799.883 1150,787.5C 1171.46,754.697 1192.13,721.364 1212,687.5C 1222.02,670.975 1233.86,655.808 1247.5,642C 1249.71,640.261 1252.21,639.094 1255,638.5C 1256.26,638.759 1257.26,639.426 1258,640.5C 1258.67,644.167 1258.67,647.833 1258,651.5C 1255.63,662.327 1252.63,672.994 1249,683.5C 1236.17,716.659 1222.17,749.326 1207,781.5C 1205.2,790.725 1208.36,797.558 1216.5,802C 1228.34,805.592 1239.01,803.592 1248.5,796C 1276.45,767.387 1304.45,738.72 1332.5,710C 1337.83,705.322 1343.67,701.489 1350,698.5C 1350.83,698.667 1351.67,698.833 1352.5,699C 1355.26,701.995 1356.1,705.495 1355,709.5C 1348.46,729.796 1341.12,749.796 1333,769.5C 1321.37,801.543 1331.87,812.376 1364.5,802C 1417.92,781.804 1471.59,762.304 1525.5,743.5 Z"/></g>
<g><path style="opacity:1" fill="#caa076" d="M 815.5,607.5 C 815.66,609.199 815.494,610.866 815,612.5C 810.647,620.23 807.98,628.563 807,637.5C 802.782,649.074 798.615,660.407 794.5,671.5C 798.443,652.396 803.943,633.73 811,615.5C 812.274,612.609 813.774,609.942 815.5,607.5 Z"/></g>
<g><path style="opacity:1" fill="#fdf2da" d="M 842.5,582.5 C 838.65,590.704 834.983,599.037 831.5,607.5C 826.138,617.578 822.138,628.244 819.5,639.5C 815.139,647.915 812.139,656.915 810.5,666.5C 809.013,670.116 807.68,673.783 806.5,677.5C 806.565,677.062 806.399,676.728 806,676.5C 805.148,677.571 804.315,678.571 803.5,679.5C 807.459,661.658 812.959,644.325 820,627.5C 826.476,611.881 833.976,596.881 842.5,582.5 Z"/></g>
<g><path style="opacity:1" fill="#fbe1bd" d="M 1648.5,666.5 C 1647.66,666.842 1647.33,667.508 1647.5,668.5C 1642.32,650.782 1636.82,633.115 1631,615.5C 1637.74,632.221 1643.57,649.221 1648.5,666.5 Z"/></g>
<g><path style="opacity:1" fill="#c2a080" d="M 794.5,671.5 C 793.085,684.461 790.752,697.128 787.5,709.5C 788.773,696.516 791.106,683.849 794.5,671.5 Z"/></g>
<g><path style="opacity:1" fill="#fcf3df" d="M 1648.5,666.5 C 1651.13,674.992 1653.13,683.659 1654.5,692.5C 1653.83,692.5 1653.17,692.5 1652.5,692.5C 1651.04,687.194 1649.71,681.861 1648.5,676.5C 1647.91,673.873 1647.58,671.206 1647.5,668.5C 1647.33,667.508 1647.66,666.842 1648.5,666.5 Z"/></g>
<g><path style="opacity:1" fill="#c39e7c" d="M 810.5,666.5 C 808.409,680.182 805.409,693.516 801.5,706.5C 802.782,696.759 804.448,687.092 806.5,677.5C 807.68,673.783 809.013,670.116 810.5,666.5 Z"/></g>
<g><path style="opacity:1" fill="#d1965d" d="M 819.5,639.5 C 819.364,642.35 819.031,645.183 818.5,648C 818.608,649.681 819.275,650.848 820.5,651.5C 815.366,667.156 811.366,683.156 808.5,699.5C 805.69,711.261 803.523,723.261 802,735.5C 801.188,739.689 801.355,743.689 802.5,747.5C 800.485,748.924 798.152,749.59 795.5,749.5C 796.586,734.902 798.586,720.568 801.5,706.5C 805.409,693.516 808.409,680.182 810.5,666.5C 812.139,656.915 815.139,647.915 819.5,639.5 Z"/></g>
<g><path style="opacity:1" fill="#cfa177" d="M 1648.5,676.5 C 1649.71,681.861 1651.04,687.194 1652.5,692.5C 1649.66,693.669 1646.66,694.669 1643.5,695.5C 1643.17,695.5 1642.83,695.5 1642.5,695.5C 1641.5,690.157 1640.5,684.824 1639.5,679.5C 1640.31,680.429 1641.15,681.429 1642,682.5C 1642.52,685.92 1643.35,689.253 1644.5,692.5C 1646.73,691.104 1648.4,689.271 1649.5,687C 1648.71,683.542 1648.38,680.042 1648.5,676.5 Z"/></g>
<g><path style="opacity:1" fill="#0a0a0a" d="M 1637.5,697.5 C 1638.24,697.369 1638.91,697.536 1639.5,698C 1635.63,701.702 1631.96,705.536 1628.5,709.5C 1594.79,720.293 1561.12,731.293 1527.5,742.5C 1524.76,739.767 1522.43,736.767 1520.5,733.5C 1559.24,720.697 1598.24,708.697 1637.5,697.5 Z"/></g>
<g><path style="opacity:1" fill="#434243" d="M 1642.5,695.5 C 1642.83,695.5 1643.17,695.5 1643.5,695.5C 1643.63,696.239 1643.46,696.906 1643,697.5C 1638.93,701.388 1635.43,705.054 1632.5,708.5C 1631.43,709.434 1630.1,709.768 1628.5,709.5C 1631.96,705.536 1635.63,701.702 1639.5,698C 1638.91,697.536 1638.24,697.369 1637.5,697.5C 1639.03,696.691 1640.69,696.024 1642.5,695.5 Z"/></g>
<g><path style="opacity:1" fill="#d59558" d="M 847.5,573.5 C 845.076,576.008 843.41,579.008 842.5,582.5C 833.976,596.881 826.476,611.881 820,627.5C 812.959,644.325 807.459,661.658 803.5,679.5C 796.277,702.491 791.944,726.158 790.5,750.5C 788.958,749.699 787.292,749.366 785.5,749.5C 785.918,736.818 786.584,724.152 787.5,711.5C 787.5,710.833 787.5,710.167 787.5,709.5C 790.752,697.128 793.085,684.461 794.5,671.5C 798.615,660.407 802.782,649.074 807,637.5C 807.98,628.563 810.647,620.23 815,612.5C 815.494,610.866 815.66,609.199 815.5,607.5C 816.497,607.53 817.164,607.03 817.5,606C 820.162,598.178 823.495,590.678 827.5,583.5C 828.452,585.045 828.785,586.712 828.5,588.5C 827.833,590.5 827.167,592.5 826.5,594.5C 819.126,608.454 813.626,623.121 810,638.5C 811.885,634.077 813.719,629.744 815.5,625.5C 816.75,625.423 817.583,624.756 818,623.5C 821.371,613.719 825.705,604.386 831,595.5C 831.49,594.207 831.657,592.873 831.5,591.5C 833.638,585.891 836.304,580.558 839.5,575.5C 840.5,575.5 841.5,575.5 842.5,575.5C 845.573,569.111 848.74,562.778 852,556.5C 852.906,554.388 854.406,553.555 856.5,554C 855.751,555.734 855.251,557.567 855,559.5C 852.22,564.062 849.72,568.728 847.5,573.5 Z"/></g>
<g><path style="opacity:1" fill="#fde8c6" d="M 826.5,594.5 C 826.5,595.833 826.5,597.167 826.5,598.5C 822.575,607.356 818.908,616.356 815.5,625.5C 813.719,629.744 811.885,634.077 810,638.5C 813.626,623.121 819.126,608.454 826.5,594.5 Z"/></g>
<g><path style="opacity:1" fill="#cea47d" d="M 831.5,591.5 C 831.657,592.873 831.49,594.207 831,595.5C 825.705,604.386 821.371,613.719 818,623.5C 817.583,624.756 816.75,625.423 815.5,625.5C 818.908,616.356 822.575,607.356 826.5,598.5C 827.921,595.991 829.588,593.657 831.5,591.5 Z"/></g>
<g><path style="opacity:1" fill="#c89260" d="M 1653.5,703.5 C 1655.3,710.589 1656.3,717.923 1656.5,725.5C 1654.58,727.675 1653.25,730.342 1652.5,733.5C 1653.28,734.949 1653.95,736.449 1654.5,738C 1654.46,758.647 1654.13,779.147 1653.5,799.5C 1653.96,768.886 1651.29,738.553 1645.5,708.5C 1645.36,706.97 1644.69,705.97 1643.5,705.5C 1646.54,703.989 1649.88,703.322 1653.5,703.5 Z"/></g>
<g><path style="opacity:1" fill="#fcf5e9" d="M 806.5,677.5 C 804.448,687.092 802.782,696.759 801.5,706.5C 798.586,720.568 796.586,734.902 795.5,749.5C 794.292,750.234 792.959,750.567 791.5,750.5C 791.167,750.5 790.833,750.5 790.5,750.5C 791.944,726.158 796.277,702.491 803.5,679.5C 804.315,678.571 805.148,677.571 806,676.5C 806.399,676.728 806.565,677.062 806.5,677.5 Z"/></g>
<g><path style="opacity:1" fill="#fcfbf8" d="M 1663.5,745.5 C 1663.5,747.5 1663.5,749.5 1663.5,751.5C 1664.37,769.818 1664.7,788.151 1664.5,806.5C 1663.11,820.112 1661.77,833.779 1660.5,847.5C 1658.65,854.278 1657.31,861.278 1656.5,868.5C 1655.84,869.398 1655.18,870.398 1654.5,871.5C 1654.17,871 1653.83,870.5 1653.5,870C 1655.04,860.218 1656.04,850.385 1656.5,840.5C 1656.5,839.5 1656.5,838.5 1656.5,837.5C 1658.1,832.155 1659.27,826.488 1660,820.5C 1660.5,788.825 1660.5,757.158 1660,725.5C 1660.11,732.491 1661.28,739.158 1663.5,745.5 Z"/></g>
<g><path style="opacity:1" fill="#3d3d3d" d="M 1520.5,733.5 C 1522.43,736.767 1524.76,739.767 1527.5,742.5C 1526.83,742.833 1526.17,743.167 1525.5,743.5C 1523.01,739.662 1519.67,736.995 1515.5,735.5C 1517.03,734.691 1518.69,734.024 1520.5,733.5 Z"/></g>
<g><path style="opacity:1" fill="#fdedd1" d="M 808.5,699.5 C 806.085,715.41 804.418,731.41 803.5,747.5C 803.167,747.5 802.833,747.5 802.5,747.5C 801.355,743.689 801.188,739.689 802,735.5C 803.523,723.261 805.69,711.261 808.5,699.5 Z"/></g>
<g><path style="opacity:1" fill="#d0965f" d="M 1663.5,699.5 C 1664.81,711.675 1666.48,723.675 1668.5,735.5C 1668.83,740.833 1669.17,746.167 1669.5,751.5C 1668.59,749.981 1667.76,748.315 1667,746.5C 1666.5,750.152 1666.33,753.818 1666.5,757.5C 1666.17,757.5 1665.83,757.5 1665.5,757.5C 1664.83,755.5 1664.17,753.5 1663.5,751.5C 1663.5,749.5 1663.5,747.5 1663.5,745.5C 1661.89,730.782 1659.89,716.116 1657.5,701.5C 1659.3,700.542 1661.3,699.875 1663.5,699.5 Z"/></g>
<g><path style="opacity:1" fill="#bd9169" d="M 787.5,711.5 C 786.584,724.152 785.918,736.818 785.5,749.5C 787.292,749.366 788.958,749.699 790.5,750.5C 790.833,750.5 791.167,750.5 791.5,750.5C 788.997,751.371 786.33,752.037 783.5,752.5C 783.472,742.808 783.972,733.141 785,723.5C 785.076,719.204 785.909,715.204 787.5,711.5 Z"/></g>
<g><path style="opacity:1" fill="#464646" d="M 808.5,746.5 C 809.568,745.566 810.901,745.232 812.5,745.5C 810.612,748.899 808.112,751.899 805,754.5C 804.5,754 804,753.5 803.5,753C 805.539,750.626 807.872,748.626 810.5,747C 809.906,746.536 809.239,746.369 808.5,746.5 Z"/></g>
<g><path style="opacity:1" fill="#fbf3e6" d="M 789.5,761.5 C 790.167,761.5 790.833,761.5 791.5,761.5C 792.5,761.5 793.5,761.5 794.5,761.5C 794.232,782.187 794.732,802.854 796,823.5C 796.789,835.469 798.623,847.135 801.5,858.5C 802.777,871.261 805.444,883.594 809.5,895.5C 810.714,903.356 812.714,911.023 815.5,918.5C 815.263,921.063 814.763,921.063 814,918.5C 796.533,868.33 788.033,816.664 788.5,763.5C 789.338,763.158 789.672,762.492 789.5,761.5 Z"/></g>
<g><path style="opacity:1" fill="#fceed5" d="M 1657.5,701.5 C 1659.89,716.116 1661.89,730.782 1663.5,745.5C 1661.28,739.158 1660.11,732.491 1660,725.5C 1660.5,757.158 1660.5,788.825 1660,820.5C 1659.27,826.488 1658.1,832.155 1656.5,837.5C 1659.11,800.011 1659.11,762.677 1656.5,725.5C 1656.3,717.923 1655.3,710.589 1653.5,703.5C 1654.29,701.896 1655.62,701.229 1657.5,701.5 Z"/></g>
<g><path style="opacity:1" fill="#bba28d" d="M 1663.5,751.5 C 1664.17,753.5 1664.83,755.5 1665.5,757.5C 1665.83,774.009 1665.5,790.342 1664.5,806.5C 1664.7,788.151 1664.37,769.818 1663.5,751.5 Z"/></g>
<g><path style="opacity:1" fill="#ca8a51" d="M 1669.5,751.5 C 1671.77,789.513 1669.44,827.18 1662.5,864.5C 1660.99,866.476 1660.16,868.809 1660,871.5C 1659.83,870.167 1659.67,868.833 1659.5,867.5C 1660.33,860.859 1660.67,854.192 1660.5,847.5C 1661.32,845.611 1662.16,843.611 1663,841.5C 1666.07,813.586 1667.23,785.586 1666.5,757.5C 1666.33,753.818 1666.5,750.152 1667,746.5C 1667.76,748.315 1668.59,749.981 1669.5,751.5 Z"/></g>
<g><path style="opacity:1" fill="#ba895b" d="M 789.5,761.5 C 789.672,762.492 789.338,763.158 788.5,763.5C 787.504,763.414 786.671,763.748 786,764.5C 785.5,786.831 785.333,809.164 785.5,831.5C 784.272,808.677 782.939,786.01 781.5,763.5C 784.053,762.745 786.72,762.078 789.5,761.5 Z"/></g>
<g><path style="opacity:1" fill="#b68d6a" d="M 799.5,759.5 C 799.5,760.167 799.5,760.833 799.5,761.5C 798.504,761.414 797.671,761.748 797,762.5C 796.333,782.167 796.333,801.833 797,821.5C 799.291,833.743 800.791,846.076 801.5,858.5C 798.623,847.135 796.789,835.469 796,823.5C 794.732,802.854 794.232,782.187 794.5,761.5C 793.5,761.5 792.5,761.5 791.5,761.5C 794.003,760.629 796.67,759.963 799.5,759.5 Z"/></g>
<g><path style="opacity:1" fill="#faecd2" d="M 799.5,759.5 C 800.5,759.5 801.5,759.5 802.5,759.5C 800.655,791.631 801.989,823.631 806.5,855.5C 804.678,846.37 803.178,837.036 802,827.5C 799.992,805.547 799.159,783.547 799.5,761.5C 799.5,760.833 799.5,760.167 799.5,759.5 Z"/></g>
<g><path style="opacity:1" fill="#ba8e68" d="M 1653.5,799.5 C 1654.25,812.042 1653.09,824.376 1650,836.5C 1649.63,838.491 1648.79,840.158 1647.5,841.5C 1649.35,827.341 1651.35,813.341 1653.5,799.5 Z"/></g>
<g><path style="opacity:1" fill="#b98c68" d="M 1665.5,757.5 C 1665.83,757.5 1666.17,757.5 1666.5,757.5C 1667.23,785.586 1666.07,813.586 1663,841.5C 1662.16,843.611 1661.32,845.611 1660.5,847.5C 1661.77,833.779 1663.11,820.112 1664.5,806.5C 1665.5,790.342 1665.83,774.009 1665.5,757.5 Z"/></g>
<g><path style="opacity:1" fill="#b68e72" d="M 785.5,831.5 C 786.614,839.689 787.614,848.023 788.5,856.5C 786.04,848.48 785.04,840.146 785.5,831.5 Z"/></g>
<g><path style="opacity:1" fill="#c6854d" d="M 1656.5,725.5 C 1659.11,762.677 1659.11,800.011 1656.5,837.5C 1656.5,838.5 1656.5,839.5 1656.5,840.5C 1653.62,860.959 1649.62,881.293 1644.5,901.5C 1643.44,900.4 1642.61,899.066 1642,897.5C 1641.67,897.833 1641.33,898.167 1641,898.5C 1640.13,896.419 1639.63,894.253 1639.5,892C 1641.63,884.654 1642.63,877.154 1642.5,869.5C 1643.12,869.389 1643.62,869.056 1644,868.5C 1646.24,860.678 1647.4,852.678 1647.5,844.5C 1647.5,843.5 1647.5,842.5 1647.5,841.5C 1648.79,840.158 1649.63,838.491 1650,836.5C 1653.09,824.376 1654.25,812.042 1653.5,799.5C 1654.13,779.147 1654.46,758.647 1654.5,738C 1653.95,736.449 1653.28,734.949 1652.5,733.5C 1653.25,730.342 1654.58,727.675 1656.5,725.5 Z"/></g>
<g><path style="opacity:1" fill="#b18f73" d="M 1647.5,844.5 C 1647.4,852.678 1646.24,860.678 1644,868.5C 1643.62,869.056 1643.12,869.389 1642.5,869.5C 1643.86,860.984 1645.53,852.65 1647.5,844.5 Z"/></g>
<g><path style="opacity:1" fill="#fef5e2" d="M 1668.5,735.5 C 1669.19,738.421 1670.03,741.421 1671,744.5C 1671.88,763.512 1672.71,782.512 1673.5,801.5C 1671.96,809.079 1671.13,816.746 1671,824.5C 1669.13,838.004 1667.63,851.338 1666.5,864.5C 1665.81,867.088 1664.64,869.421 1663,871.5C 1660.24,886.316 1656.91,900.983 1653,915.5C 1651.31,918.646 1649.48,921.646 1647.5,924.5C 1654.06,904.923 1659.06,884.923 1662.5,864.5C 1669.44,827.18 1671.77,789.513 1669.5,751.5C 1669.17,746.167 1668.83,740.833 1668.5,735.5 Z"/></g>
<g><path style="opacity:1" fill="#c6864e" d="M 799.5,761.5 C 799.159,783.547 799.992,805.547 802,827.5C 803.178,837.036 804.678,846.37 806.5,855.5C 808.558,871.059 811.558,886.392 815.5,901.5C 814.161,906.661 813.328,906.328 813,900.5C 812.263,898.404 811.097,896.737 809.5,895.5C 808.367,882.623 805.7,870.29 801.5,858.5C 800.791,846.076 799.291,833.743 797,821.5C 796.333,801.833 796.333,782.167 797,762.5C 797.671,761.748 798.504,761.414 799.5,761.5 Z"/></g>
<g><path style="opacity:1" fill="#c0804a" d="M 788.5,763.5 C 788.033,816.664 796.533,868.33 814,918.5C 814.763,921.063 815.263,921.063 815.5,918.5C 812.714,911.023 810.714,903.356 809.5,895.5C 811.097,896.737 812.263,898.404 813,900.5C 813.328,906.328 814.161,906.661 815.5,901.5C 825.077,931.787 837.077,961.12 851.5,989.5C 851.855,994.486 849.855,995.819 845.5,993.5C 845.649,992.448 845.483,991.448 845,990.5C 839.248,984.997 835.581,978.33 834,970.5C 832.887,969.695 831.721,969.028 830.5,968.5C 820.711,950.334 812.545,931.334 806,911.5C 806.217,914.847 806.884,918.18 808,921.5C 811.799,931.065 815.299,940.731 818.5,950.5C 818.719,951.675 818.386,952.675 817.5,953.5C 815.122,950.034 812.789,946.7 810.5,943.5C 809.566,942.432 809.232,941.099 809.5,939.5C 801.075,912.939 794.575,885.939 790,858.5C 789.617,857.944 789.117,857.611 788.5,857.5C 788.5,857.167 788.5,856.833 788.5,856.5C 787.614,848.023 786.614,839.689 785.5,831.5C 785.333,809.164 785.5,786.831 786,764.5C 786.671,763.748 787.504,763.414 788.5,763.5 Z"/></g>
<g><path style="opacity:1" fill="#b4845c" d="M 801.5,858.5 C 805.7,870.29 808.367,882.623 809.5,895.5C 805.444,883.594 802.777,871.261 801.5,858.5 Z"/></g>
<g><path style="opacity:1" fill="#ba7e4e" d="M 1642.5,869.5 C 1642.63,877.154 1641.63,884.654 1639.5,892C 1639.63,894.253 1640.13,896.419 1641,898.5C 1641.33,898.167 1641.67,897.833 1642,897.5C 1642.61,899.066 1643.44,900.4 1644.5,901.5C 1641.37,912.903 1638.03,924.237 1634.5,935.5C 1628.27,952.636 1620.93,969.303 1612.5,985.5C 1612.63,984.761 1612.46,984.094 1612,983.5C 1608.03,986.138 1605.69,989.805 1605,994.5C 1603.57,996.766 1601.74,998.432 1599.5,999.5C 1611.44,976.955 1621.77,953.621 1630.5,929.5C 1630.33,928.833 1630.17,928.167 1630,927.5C 1621.27,949.542 1611.1,970.875 1599.5,991.5C 1598.32,991.719 1597.32,991.386 1596.5,990.5C 1597.58,987.793 1598.58,985.126 1599.5,982.5C 1600.5,982.5 1601.5,982.5 1602.5,982.5C 1605.29,972.582 1609.46,963.248 1615,954.5C 1615.5,952.527 1615.66,950.527 1615.5,948.5C 1626.51,922.758 1635.51,896.425 1642.5,869.5 Z"/></g>
<g><path style="opacity:1" fill="#1e1e1e" d="M 1241.5,903.5 C 1246.69,902.467 1250.69,904.134 1253.5,908.5C 1253,908.833 1252.5,909.167 1252,909.5C 1249,906.735 1245.5,905.901 1241.5,907C 1237.51,910.286 1237.51,913.619 1241.5,917C 1246.59,918.958 1251.09,921.792 1255,925.5C 1256.41,936.423 1251.57,940.923 1240.5,939C 1237.31,937.305 1234.97,934.805 1233.5,931.5C 1234,930.479 1234.67,930.312 1235.5,931C 1240.31,937.235 1245.81,938.069 1252,933.5C 1252.67,931.167 1252.67,928.833 1252,926.5C 1247.75,923.292 1243.25,920.458 1238.5,918C 1233.86,911.986 1234.86,907.153 1241.5,903.5 Z"/></g>
<g><path style="opacity:1" fill="#808080" d="M 1416.5,904.5 C 1423.98,903.508 1431.65,903.175 1439.5,903.5C 1439.74,904.791 1439.4,905.791 1438.5,906.5C 1431.58,904.537 1424.24,903.87 1416.5,904.5 Z"/></g>
<g><path style="opacity:1" fill="#202020" d="M 1502.5,903.5 C 1508.07,902.99 1513.41,903.823 1518.5,906C 1520.62,907.171 1521.28,908.671 1520.5,910.5C 1515.09,906.708 1509.09,905.541 1502.5,907C 1493.59,911.853 1491.09,919.02 1495,928.5C 1500.2,936.575 1507.36,938.742 1516.5,935C 1517.77,932.739 1519.44,932.239 1521.5,933.5C 1512.13,941.717 1502.96,941.384 1494,932.5C 1487.45,919.977 1490.29,910.311 1502.5,903.5 Z"/></g>
<g><path style="opacity:1" fill="#1a1a1a" d="M 1551.5,903.5 C 1556.74,902.465 1560.74,904.132 1563.5,908.5C 1561.88,909.476 1560.54,908.976 1559.5,907C 1556.83,906.333 1554.17,906.333 1551.5,907C 1547.63,910.249 1547.63,913.582 1551.5,917C 1555.5,919 1559.5,921 1563.5,923C 1568.48,935.042 1564.48,940.375 1551.5,939C 1547.7,937.699 1545.03,935.199 1543.5,931.5C 1544,931.167 1544.5,930.833 1545,930.5C 1549.25,936.472 1554.75,937.972 1561.5,935C 1563.91,931.957 1564.07,928.791 1562,925.5C 1558.86,923.014 1555.36,921.181 1551.5,920C 1546.85,917.103 1545.35,912.937 1547,907.5C 1548.4,905.93 1549.9,904.596 1551.5,903.5 Z"/></g>
<g><path style="opacity:1" fill="#fbf2e3" d="M 1656.5,840.5 C 1656.04,850.385 1655.04,860.218 1653.5,870C 1653.83,870.5 1654.17,871 1654.5,871.5C 1655.18,870.398 1655.84,869.398 1656.5,868.5C 1651.77,894.434 1644.1,919.434 1633.5,943.5C 1634.09,940.873 1634.42,938.206 1634.5,935.5C 1638.03,924.237 1641.37,912.903 1644.5,901.5C 1649.62,881.293 1653.62,860.959 1656.5,840.5 Z"/></g>
<g><path style="opacity:1" fill="#212121" d="M 887.5,903.5 C 888.496,903.414 889.329,903.748 890,904.5C 894.08,912.329 898.413,919.996 903,927.5C 908.004,920.162 912.504,912.496 916.5,904.5C 917.325,903.614 918.325,903.281 919.5,903.5C 919.5,915.167 919.5,926.833 919.5,938.5C 918.5,938.5 917.5,938.5 916.5,938.5C 916.666,929.161 916.5,919.827 916,910.5C 912.065,918.094 907.732,925.427 903,932.5C 898.667,925.167 894.333,917.833 890,910.5C 889.5,919.827 889.334,929.161 889.5,938.5C 888.5,938.5 887.5,938.5 886.5,938.5C 886.189,926.753 886.522,915.086 887.5,903.5 Z"/></g>
<g><path style="opacity:1" fill="#000000" d="M 978.5,904.5 C 978.5,915.167 978.5,925.833 978.5,936.5C 983.5,936.5 988.5,936.5 993.5,936.5C 988.265,938.45 982.598,939.117 976.5,938.5C 975.856,926.784 976.522,915.451 978.5,904.5 Z"/></g>
<g><path style="opacity:1" fill="#030303" d="M 1020.5,904.5 C 1020.5,915.167 1020.5,925.833 1020.5,936.5C 1025.5,936.5 1030.5,936.5 1035.5,936.5C 1035.5,937.167 1035.5,937.833 1035.5,938.5C 1029.83,938.5 1024.17,938.5 1018.5,938.5C 1018.5,927.167 1018.5,915.833 1018.5,904.5C 1019.17,903.167 1019.83,903.167 1020.5,904.5 Z"/></g>
<g><path style="opacity:1" fill="#040404" d="M 1078.5,904.5 C 1073.6,906.446 1068.27,907.113 1062.5,906.5C 1062.5,910.5 1062.5,914.5 1062.5,918.5C 1067.35,919.166 1072.35,919.833 1077.5,920.5C 1072.54,921.494 1067.54,921.827 1062.5,921.5C 1062.5,926.5 1062.5,931.5 1062.5,936.5C 1068.17,936.5 1073.83,936.5 1079.5,936.5C 1073.59,938.456 1067.25,939.123 1060.5,938.5C 1060.5,927.167 1060.5,915.833 1060.5,904.5C 1066.5,904.5 1072.5,904.5 1078.5,904.5 Z"/></g>
<g><path style="opacity:1" fill="#1b1b1b" d="M 1150.5,904.5 C 1151.82,904.33 1152.99,904.663 1154,905.5C 1158.37,916.406 1162.87,927.239 1167.5,938C 1166.22,938.684 1165.05,938.517 1164,937.5C 1162.86,934.904 1162.03,932.237 1161.5,929.5C 1155.49,929.334 1149.49,929.501 1143.5,930C 1141.8,932.587 1140.8,935.421 1140.5,938.5C 1139.5,938.5 1138.5,938.5 1137.5,938.5C 1141.83,927.177 1146.16,915.844 1150.5,904.5 Z"/></g>
<g><path style="opacity:1" fill="#050505" d="M 1194.5,906.5 C 1193.52,910.634 1193.18,914.968 1193.5,919.5C 1198.83,919.5 1204.17,919.5 1209.5,919.5C 1204.94,921.442 1199.94,922.108 1194.5,921.5C 1193.51,926.305 1193.18,931.305 1193.5,936.5C 1199.17,936.5 1204.83,936.5 1210.5,936.5C 1204.59,938.456 1198.25,939.123 1191.5,938.5C 1191.5,927.167 1191.5,915.833 1191.5,904.5C 1197.87,904.17 1204.2,904.504 1210.5,905.5C 1205.21,906.495 1199.87,906.828 1194.5,906.5 Z"/></g>
<g><path style="opacity:1" fill="#171717" d="M 1275.5,904.5 C 1283.2,904.169 1290.86,904.503 1298.5,905.5C 1295.23,906.487 1291.9,906.82 1288.5,906.5C 1288.5,917.167 1288.5,927.833 1288.5,938.5C 1287.5,938.5 1286.5,938.5 1285.5,938.5C 1285.5,927.833 1285.5,917.167 1285.5,906.5C 1281.67,907.069 1278.34,906.402 1275.5,904.5 Z"/></g>
<g><path style="opacity:1" fill="#030303" d="M 1345.5,938.5 C 1345.5,932.833 1345.5,927.167 1345.5,921.5C 1338.5,921.5 1331.5,921.5 1324.5,921.5C 1324.5,927.167 1324.5,932.833 1324.5,938.5C 1323.17,933.208 1322.5,927.542 1322.5,921.5C 1322.5,915.458 1323.17,909.792 1324.5,904.5C 1324.5,909.5 1324.5,914.5 1324.5,919.5C 1331.5,919.5 1338.5,919.5 1345.5,919.5C 1345.5,914.5 1345.5,909.5 1345.5,904.5C 1345.56,903.957 1345.89,903.624 1346.5,903.5C 1346.83,909.333 1347.17,915.167 1347.5,921C 1347.5,927.207 1346.83,933.04 1345.5,938.5 Z"/></g>
<g><path style="opacity:1" fill="#040404" d="M 1393.5,904.5 C 1393.5,905.167 1393.5,905.833 1393.5,906.5C 1388.17,906.5 1382.83,906.5 1377.5,906.5C 1377.5,910.833 1377.5,915.167 1377.5,919.5C 1382.5,919.5 1387.5,919.5 1392.5,919.5C 1387.94,921.442 1382.94,922.108 1377.5,921.5C 1377.5,926.5 1377.5,931.5 1377.5,936.5C 1383.17,936.5 1388.83,936.5 1394.5,936.5C 1388.59,938.456 1382.25,939.123 1375.5,938.5C 1375.5,927.167 1375.5,915.833 1375.5,904.5C 1381.5,904.5 1387.5,904.5 1393.5,904.5 Z"/></g>
<g><path style="opacity:1" fill="#000000" d="M 1465.5,904.5 C 1466.14,916.216 1465.48,927.549 1463.5,938.5C 1462.86,926.784 1463.52,915.451 1465.5,904.5 Z"/></g>
<g><path style="opacity:1" fill="#9f9f9f" d="M 978.5,904.5 C 976.522,915.451 975.856,926.784 976.5,938.5C 975.505,927.012 975.172,915.345 975.5,903.5C 976.791,903.263 977.791,903.596 978.5,904.5 Z"/></g>
<g><path style="opacity:1" fill="#a7a7a7" d="M 978.5,904.5 C 979.494,914.653 979.828,924.986 979.5,935.5C 984.363,935.181 989.03,935.514 993.5,936.5C 988.5,936.5 983.5,936.5 978.5,936.5C 978.5,925.833 978.5,915.167 978.5,904.5 Z"/></g>
<g><path style="opacity:1" fill="#bfbfbf" d="M 1020.5,904.5 C 1021.49,914.653 1021.83,924.986 1021.5,935.5C 1026.36,935.181 1031.03,935.514 1035.5,936.5C 1030.5,936.5 1025.5,936.5 1020.5,936.5C 1020.5,925.833 1020.5,915.167 1020.5,904.5 Z"/></g>
<g><path style="opacity:1" fill="#606060" d="M 946.5,904.5 C 947.209,903.596 948.209,903.263 949.5,903.5C 949.828,915.345 949.495,927.012 948.5,938.5C 949.144,926.784 948.478,915.451 946.5,904.5 Z"/></g>
<g><path style="opacity:1" fill="#9f9f9f" d="M 1465.5,904.5 C 1463.52,915.451 1462.86,926.784 1463.5,938.5C 1462.51,927.012 1462.17,915.345 1462.5,903.5C 1463.79,903.263 1464.79,903.596 1465.5,904.5 Z"/></g>
<g><path style="opacity:1" fill="#111111" d="M 946.5,904.5 C 948.478,915.451 949.144,926.784 948.5,938.5C 946.522,927.549 945.856,916.216 946.5,904.5 Z"/></g>
<g><path style="opacity:1" fill="#666666" d="M 1393.5,904.5 C 1387.5,904.5 1381.5,904.5 1375.5,904.5C 1375.5,915.833 1375.5,927.167 1375.5,938.5C 1374.51,927.012 1374.17,915.345 1374.5,903.5C 1381.02,903.177 1387.36,903.51 1393.5,904.5 Z"/></g>
<g><path style="opacity:1" fill="#f1f1f1" d="M 1151.5,908.5 C 1154.39,913.955 1157.06,919.622 1159.5,925.5C 1154.53,926.662 1149.53,926.829 1144.5,926C 1147.32,920.359 1149.66,914.526 1151.5,908.5 Z"/></g>
<g><path style="opacity:1" fill="#676767" d="M 1078.5,904.5 C 1072.5,904.5 1066.5,904.5 1060.5,904.5C 1060.5,915.833 1060.5,927.167 1060.5,938.5C 1059.51,927.012 1059.17,915.345 1059.5,903.5C 1066.02,903.177 1072.36,903.51 1078.5,904.5 Z"/></g>
<g><path style="opacity:1" fill="#cacaca" d="M 1393.5,906.5 C 1388.69,907.487 1383.69,907.821 1378.5,907.5C 1378.5,911.167 1378.5,914.833 1378.5,918.5C 1383.36,918.181 1388.03,918.514 1392.5,919.5C 1387.5,919.5 1382.5,919.5 1377.5,919.5C 1377.5,915.167 1377.5,910.833 1377.5,906.5C 1382.83,906.5 1388.17,906.5 1393.5,906.5 Z"/></g>
<g><path style="opacity:1" fill="#070707" d="M 1416.5,904.5 C 1424.24,903.87 1431.58,904.537 1438.5,906.5C 1435.17,906.5 1431.83,906.5 1428.5,906.5C 1427.83,949.167 1427.17,949.167 1426.5,906.5C 1422.67,907.069 1419.34,906.402 1416.5,904.5 Z"/></g>
<g><path style="opacity:1" fill="#b18561" d="M 788.5,857.5 C 789.117,857.611 789.617,857.944 790,858.5C 794.575,885.939 801.075,912.939 809.5,939.5C 799.054,913.205 792.054,885.872 788.5,857.5 Z"/></g>
<g><path style="opacity:1" fill="#8a8a8a" d="M 1194.5,906.5 C 1194.5,910.5 1194.5,914.5 1194.5,918.5C 1199.69,918.179 1204.69,918.513 1209.5,919.5C 1204.17,919.5 1198.83,919.5 1193.5,919.5C 1193.18,914.968 1193.52,910.634 1194.5,906.5 Z"/></g>
<g><path style="opacity:1" fill="#a5a5a5" d="M 1324.5,904.5 C 1325.49,908.97 1325.82,913.637 1325.5,918.5C 1331.83,918.5 1338.17,918.5 1344.5,918.5C 1344.18,913.637 1344.51,908.97 1345.5,904.5C 1345.5,909.5 1345.5,914.5 1345.5,919.5C 1338.5,919.5 1331.5,919.5 1324.5,919.5C 1324.5,914.5 1324.5,909.5 1324.5,904.5 Z"/></g>
<g><path style="opacity:1" fill="#bcbcbc" d="M 1062.5,918.5 C 1067.83,918.5 1073.17,918.5 1078.5,918.5C 1078.5,919.833 1078.5,921.167 1078.5,922.5C 1073.5,922.5 1068.5,922.5 1063.5,922.5C 1063.5,926.833 1063.5,931.167 1063.5,935.5C 1069.03,935.179 1074.36,935.512 1079.5,936.5C 1073.83,936.5 1068.17,936.5 1062.5,936.5C 1062.5,931.5 1062.5,926.5 1062.5,921.5C 1067.54,921.827 1072.54,921.494 1077.5,920.5C 1072.35,919.833 1067.35,919.166 1062.5,918.5 Z"/></g>
<g><path style="opacity:1" fill="#bcbcbc" d="M 1345.5,938.5 C 1344.51,933.36 1344.18,928.026 1344.5,922.5C 1338.17,922.5 1331.83,922.5 1325.5,922.5C 1325.82,928.026 1325.49,933.36 1324.5,938.5C 1324.5,932.833 1324.5,927.167 1324.5,921.5C 1331.5,921.5 1338.5,921.5 1345.5,921.5C 1345.5,927.167 1345.5,932.833 1345.5,938.5 Z"/></g>
<g><path style="opacity:1" fill="#9f9f9f" d="M 1194.5,921.5 C 1194.5,926.167 1194.5,930.833 1194.5,935.5C 1200.03,935.179 1205.36,935.512 1210.5,936.5C 1204.83,936.5 1199.17,936.5 1193.5,936.5C 1193.18,931.305 1193.51,926.305 1194.5,921.5 Z"/></g>
<g><path style="opacity:1" fill="#c3c3c3" d="M 1392.5,919.5 C 1393.4,920.209 1393.74,921.209 1393.5,922.5C 1388.5,922.5 1383.5,922.5 1378.5,922.5C 1378.5,926.833 1378.5,931.167 1378.5,935.5C 1384.03,935.179 1389.36,935.512 1394.5,936.5C 1388.83,936.5 1383.17,936.5 1377.5,936.5C 1377.5,931.5 1377.5,926.5 1377.5,921.5C 1382.94,922.108 1387.94,921.442 1392.5,919.5 Z"/></g>
<g><path style="opacity:1" fill="#a6a6a6" d="M 1018.5,904.5 C 1018.5,915.833 1018.5,927.167 1018.5,938.5C 1024.17,938.5 1029.83,938.5 1035.5,938.5C 1029.69,939.49 1023.69,939.823 1017.5,939.5C 1017.17,927.655 1017.51,915.988 1018.5,904.5 Z"/></g>
<g><path style="opacity:1" fill="#fef1dc" d="M 1647.5,924.5 C 1646.36,935.242 1643.03,945.242 1637.5,954.5C 1637.04,955.298 1636.38,955.631 1635.5,955.5C 1639.52,945.091 1643.52,934.758 1647.5,924.5 Z"/></g>
<g><path style="opacity:1" fill="#fae4ca" d="M 1634.5,935.5 C 1634.42,938.206 1634.09,940.873 1633.5,943.5C 1629.73,954.383 1625.39,965.05 1620.5,975.5C 1614.03,987.104 1607.53,998.771 1601,1010.5C 1600.35,1011.7 1599.85,1011.7 1599.5,1010.5C 1604.29,1002.38 1608.63,994.048 1612.5,985.5C 1620.93,969.303 1628.27,952.636 1634.5,935.5 Z"/></g>
<g><path style="opacity:1" fill="#b87f51" d="M 1660.5,847.5 C 1660.67,854.192 1660.33,860.859 1659.5,867.5C 1659.67,868.833 1659.83,870.167 1660,871.5C 1660.16,868.809 1660.99,866.476 1662.5,864.5C 1659.06,884.923 1654.06,904.923 1647.5,924.5C 1643.52,934.758 1639.52,945.091 1635.5,955.5C 1633.03,960.921 1630.36,966.254 1627.5,971.5C 1627.69,969.897 1627.19,968.563 1626,967.5C 1624.36,970.483 1622.53,973.149 1620.5,975.5C 1625.39,965.05 1629.73,954.383 1633.5,943.5C 1644.1,919.434 1651.77,894.434 1656.5,868.5C 1657.31,861.278 1658.65,854.278 1660.5,847.5 Z"/></g>
<g><path style="opacity:1" fill="#fbf0e0" d="M 830.5,968.5 C 838.224,984.955 847.224,1000.62 857.5,1015.5C 856.5,1015.5 855.5,1015.5 854.5,1015.5C 854.719,1014.32 854.386,1013.32 853.5,1012.5C 853.167,1013 852.833,1013.5 852.5,1014C 853.148,1015.44 853.481,1016.94 853.5,1018.5C 840.256,996.679 828.589,974.013 818.5,950.5C 815.299,940.731 811.799,931.065 808,921.5C 806.884,918.18 806.217,914.847 806,911.5C 812.545,931.334 820.711,950.334 830.5,968.5 Z"/></g>
<g><path style="opacity:1" fill="#a67b5a" d="M 1599.5,1000.5 C 1598.63,1003.92 1597.46,1007.25 1596,1010.5C 1592.05,1015.41 1588.88,1020.75 1586.5,1026.5C 1585.5,1026.5 1584.5,1026.5 1583.5,1026.5C 1588.47,1017.55 1593.8,1008.88 1599.5,1000.5 Z"/></g>
<g><path style="opacity:1" fill="#b17141" d="M 1627.5,971.5 C 1597.14,1036.54 1553.14,1090.54 1495.5,1133.5C 1494.03,1132.93 1492.69,1132.09 1491.5,1131C 1495.15,1127.37 1498.48,1123.53 1501.5,1119.5C 1501.83,1119.5 1502.17,1119.5 1502.5,1119.5C 1507.8,1115.21 1513.13,1110.88 1518.5,1106.5C 1519.39,1105.68 1519.72,1104.68 1519.5,1103.5C 1525.83,1099.17 1531.17,1093.83 1535.5,1087.5C 1536.55,1087.65 1537.55,1087.48 1538.5,1087C 1543.01,1080 1548.67,1074.16 1555.5,1069.5C 1557.48,1067.19 1558.48,1064.52 1558.5,1061.5C 1567.08,1050 1575.41,1038.33 1583.5,1026.5C 1584.5,1026.5 1585.5,1026.5 1586.5,1026.5C 1588.88,1020.75 1592.05,1015.41 1596,1010.5C 1597.46,1007.25 1598.63,1003.92 1599.5,1000.5C 1599.5,1000.17 1599.5,999.833 1599.5,999.5C 1601.74,998.432 1603.57,996.766 1605,994.5C 1605.69,989.805 1608.03,986.138 1612,983.5C 1612.46,984.094 1612.63,984.761 1612.5,985.5C 1608.63,994.048 1604.29,1002.38 1599.5,1010.5C 1599.85,1011.7 1600.35,1011.7 1601,1010.5C 1607.53,998.771 1614.03,987.104 1620.5,975.5C 1622.53,973.149 1624.36,970.483 1626,967.5C 1627.19,968.563 1627.69,969.897 1627.5,971.5 Z"/></g>
<g><path style="opacity:1" fill="#9f7659" d="M 1572.5,1023.5 C 1570.04,1029.97 1566.04,1035.3 1560.5,1039.5C 1564.15,1033.86 1568.15,1028.53 1572.5,1023.5 Z"/></g>
<g><path style="opacity:1" fill="#b07447" d="M 810.5,943.5 C 812.789,946.7 815.122,950.034 817.5,953.5C 818.386,952.675 818.719,951.675 818.5,950.5C 828.589,974.013 840.256,996.679 853.5,1018.5C 870.593,1045.26 889.927,1070.26 911.5,1093.5C 911.719,1094.68 911.386,1095.68 910.5,1096.5C 908.483,1095.04 906.483,1093.71 904.5,1092.5C 862.743,1049.67 831.409,1000.01 810.5,943.5 Z"/></g>
<g><path style="opacity:1" fill="#fcf7f2" d="M 857.5,1015.5 C 899.624,1077.63 952.957,1127.63 1017.5,1165.5C 1025,1169.75 1032.67,1173.75 1040.5,1177.5C 1046.89,1181.03 1053.56,1184.03 1060.5,1186.5C 1068.44,1190.6 1076.77,1193.93 1085.5,1196.5C 1095.7,1200.08 1106.03,1203.41 1116.5,1206.5C 1117.68,1208.07 1119.35,1208.9 1121.5,1209C 1118.85,1209.5 1116.19,1209.66 1113.5,1209.5C 1102.4,1206.88 1091.4,1203.88 1080.5,1200.5C 1075.05,1198.13 1069.38,1196.13 1063.5,1194.5C 1057.14,1190.99 1050.47,1187.99 1043.5,1185.5C 1035.57,1181.53 1027.57,1177.53 1019.5,1173.5C 979.58,1152.2 943.58,1125.53 911.5,1093.5C 889.927,1070.26 870.593,1045.26 853.5,1018.5C 853.481,1016.94 853.148,1015.44 852.5,1014C 852.833,1013.5 853.167,1013 853.5,1012.5C 854.386,1013.32 854.719,1014.32 854.5,1015.5C 855.5,1015.5 856.5,1015.5 857.5,1015.5 Z"/></g>
<g><path style="opacity:1" fill="#ab7046" d="M 1615.5,948.5 C 1615.66,950.527 1615.5,952.527 1615,954.5C 1609.46,963.248 1605.29,972.582 1602.5,982.5C 1601.5,982.5 1600.5,982.5 1599.5,982.5C 1598.58,985.126 1597.58,987.793 1596.5,990.5C 1597.32,991.386 1598.32,991.719 1599.5,991.5C 1563.72,1052.95 1515.72,1102.62 1455.5,1140.5C 1453.15,1139.39 1452.82,1137.73 1454.5,1135.5C 1455.66,1133.75 1457.33,1132.75 1459.5,1132.5C 1465.64,1129.26 1471.64,1125.76 1477.5,1122C 1479.68,1119.99 1481.68,1117.82 1483.5,1115.5C 1511.8,1092.87 1537.46,1067.54 1560.5,1039.5C 1566.04,1035.3 1570.04,1029.97 1572.5,1023.5C 1588.87,999.764 1603.21,974.764 1615.5,948.5 Z"/></g>
<g><path style="opacity:1" fill="#a07353" d="M 1558.5,1061.5 C 1558.48,1064.52 1557.48,1067.19 1555.5,1069.5C 1548.67,1074.16 1543.01,1080 1538.5,1087C 1537.55,1087.48 1536.55,1087.65 1535.5,1087.5C 1543.2,1078.81 1550.86,1070.14 1558.5,1061.5 Z"/></g>
<g><path style="opacity:1" fill="#aa6c40" d="M 830.5,968.5 C 831.721,969.028 832.887,969.695 834,970.5C 835.581,978.33 839.248,984.997 845,990.5C 845.483,991.448 845.649,992.448 845.5,993.5C 849.855,995.819 851.855,994.486 851.5,989.5C 890.629,1060.96 946.296,1115.63 1018.5,1153.5C 1018.21,1157.44 1018.54,1161.27 1019.5,1165C 1018.91,1165.46 1018.24,1165.63 1017.5,1165.5C 952.957,1127.63 899.624,1077.63 857.5,1015.5C 847.224,1000.62 838.224,984.955 830.5,968.5 Z"/></g>
<g><path style="opacity:1" fill="#9a775c" d="M 1535.5,1087.5 C 1531.17,1093.83 1525.83,1099.17 1519.5,1103.5C 1524.5,1097.83 1529.83,1092.5 1535.5,1087.5 Z"/></g>
<g><path style="opacity:1" fill="#fcf8f3" d="M 1599.5,999.5 C 1599.5,999.833 1599.5,1000.17 1599.5,1000.5C 1593.8,1008.88 1588.47,1017.55 1583.5,1026.5C 1575.41,1038.33 1567.08,1050 1558.5,1061.5C 1550.86,1070.14 1543.2,1078.81 1535.5,1087.5C 1529.83,1092.5 1524.5,1097.83 1519.5,1103.5C 1513.6,1108.61 1507.93,1113.94 1502.5,1119.5C 1502.17,1119.5 1501.83,1119.5 1501.5,1119.5C 1468.92,1147.98 1432.25,1170.14 1391.5,1186C 1370.3,1193.79 1348.96,1200.62 1327.5,1206.5C 1326.83,1206.5 1326.17,1206.5 1325.5,1206.5C 1304.82,1210.39 1284.15,1213.39 1263.5,1215.5C 1262.5,1215.5 1261.5,1215.5 1260.5,1215.5C 1222.01,1218.53 1184.01,1215.87 1146.5,1207.5C 1145.19,1206.77 1143.86,1205.93 1142.5,1205C 1145.48,1204.5 1148.48,1204.34 1151.5,1204.5C 1159.13,1205.54 1166.8,1206.21 1174.5,1206.5C 1179.99,1207.58 1185.65,1208.41 1191.5,1209C 1234.89,1211.43 1277.56,1207.59 1319.5,1197.5C 1328.89,1196.24 1337.89,1193.9 1346.5,1190.5C 1385.54,1179.48 1421.87,1162.81 1455.5,1140.5C 1515.72,1102.62 1563.72,1052.95 1599.5,991.5C 1611.1,970.875 1621.27,949.542 1630,927.5C 1630.17,928.167 1630.33,928.833 1630.5,929.5C 1621.77,953.621 1611.44,976.955 1599.5,999.5 Z"/></g>
<g><path style="opacity:1" fill="#967054" d="M 1519.5,1103.5 C 1519.72,1104.68 1519.39,1105.68 1518.5,1106.5C 1513.13,1110.88 1507.8,1115.21 1502.5,1119.5C 1507.93,1113.94 1513.6,1108.61 1519.5,1103.5 Z"/></g>
<g><path style="opacity:1" fill="#926c4f" d="M 1483.5,1115.5 C 1481.68,1117.82 1479.68,1119.99 1477.5,1122C 1471.64,1125.76 1465.64,1129.26 1459.5,1132.5C 1467.14,1126.34 1475.14,1120.68 1483.5,1115.5 Z"/></g>
<g><path style="opacity:1" fill="#a56940" d="M 904.5,1092.5 C 906.483,1093.71 908.483,1095.04 910.5,1096.5C 911.386,1095.68 911.719,1094.68 911.5,1093.5C 943.58,1125.53 979.58,1152.2 1019.5,1173.5C 1019.92,1175.78 1019.26,1177.45 1017.5,1178.5C 974.646,1156.65 936.98,1127.98 904.5,1092.5 Z"/></g>
<g><path style="opacity:1" fill="#a1653e" d="M 1454.5,1135.5 C 1452.82,1137.73 1453.15,1139.39 1455.5,1140.5C 1421.87,1162.81 1385.54,1179.48 1346.5,1190.5C 1345.02,1189.55 1344.02,1188.22 1343.5,1186.5C 1346.33,1185.27 1349.33,1184.27 1352.5,1183.5C 1354.86,1183.66 1357.19,1183.5 1359.5,1183C 1364.53,1180.21 1369.87,1178.21 1375.5,1177C 1377.58,1176.3 1379.25,1175.14 1380.5,1173.5C 1406.25,1162.96 1430.92,1150.29 1454.5,1135.5 Z"/></g>
<g><path style="opacity:1" fill="#9e623b" d="M 1042.5,1165.5 C 1049.58,1168.31 1056.58,1171.31 1063.5,1174.5C 1063.78,1176.41 1063.45,1178.08 1062.5,1179.5C 1055.25,1177.08 1048.25,1174.08 1041.5,1170.5C 1041.22,1168.59 1041.55,1166.92 1042.5,1165.5 Z"/></g>
<g><path style="opacity:1" fill="#b78462" d="M 1018.5,1153.5 C 1026.57,1157.53 1034.57,1161.53 1042.5,1165.5C 1041.55,1166.92 1041.22,1168.59 1041.5,1170.5C 1039.57,1169.46 1037.57,1168.96 1035.5,1169C 1037.62,1170.08 1039.62,1171.25 1041.5,1172.5C 1041.63,1174.29 1041.3,1175.96 1040.5,1177.5C 1032.67,1173.75 1025,1169.75 1017.5,1165.5C 1018.24,1165.63 1018.91,1165.46 1019.5,1165C 1018.54,1161.27 1018.21,1157.44 1018.5,1153.5 Z"/></g>
<g><path style="opacity:1" fill="#9f633c" d="M 1041.5,1172.5 C 1048.42,1175.69 1055.42,1178.69 1062.5,1181.5C 1062.92,1183.78 1062.26,1185.45 1060.5,1186.5C 1053.56,1184.03 1046.89,1181.03 1040.5,1177.5C 1041.3,1175.96 1041.63,1174.29 1041.5,1172.5 Z"/></g>
<g><path style="opacity:1" fill="#b18161" d="M 1063.5,1174.5 C 1071.58,1177.52 1079.58,1180.52 1087.5,1183.5C 1085.82,1184.18 1085.16,1185.52 1085.5,1187.5C 1077.47,1185.6 1069.8,1182.94 1062.5,1179.5C 1063.45,1178.08 1063.78,1176.41 1063.5,1174.5 Z"/></g>
<g><path style="opacity:1" fill="#b48465" d="M 1019.5,1173.5 C 1027.57,1177.53 1035.57,1181.53 1043.5,1185.5C 1041.74,1186.55 1041.08,1188.22 1041.5,1190.5C 1033.19,1187.01 1025.19,1183.01 1017.5,1178.5C 1019.26,1177.45 1019.92,1175.78 1019.5,1173.5 Z"/></g>
<g><path style="opacity:1" fill="#956c51" d="M 1380.5,1173.5 C 1379.25,1175.14 1377.58,1176.3 1375.5,1177C 1369.87,1178.21 1364.53,1180.21 1359.5,1183C 1357.19,1183.5 1354.86,1183.66 1352.5,1183.5C 1361.67,1180 1371.01,1176.66 1380.5,1173.5 Z"/></g>
<g><path style="opacity:1" fill="#9e643f" d="M 1087.5,1183.5 C 1094.58,1185.25 1101.58,1187.25 1108.5,1189.5C 1108.5,1190.83 1108.5,1192.17 1108.5,1193.5C 1107.5,1193.5 1106.5,1193.5 1105.5,1193.5C 1098.44,1192.48 1091.78,1190.48 1085.5,1187.5C 1085.16,1185.52 1085.82,1184.18 1087.5,1183.5 Z"/></g>
<g><path style="opacity:1" fill="#b28364" d="M 1062.5,1181.5 C 1070.5,1185.05 1078.5,1188.38 1086.5,1191.5C 1085.55,1192.92 1085.22,1194.59 1085.5,1196.5C 1076.77,1193.93 1068.44,1190.6 1060.5,1186.5C 1062.26,1185.45 1062.92,1183.78 1062.5,1181.5 Z"/></g>
<g><path style="opacity:1" fill="#b28364" d="M 1343.5,1186.5 C 1344.02,1188.22 1345.02,1189.55 1346.5,1190.5C 1337.89,1193.9 1328.89,1196.24 1319.5,1197.5C 1319.07,1196.29 1318.4,1195.29 1317.5,1194.5C 1317.16,1193.66 1316.49,1193.33 1315.5,1193.5C 1324.73,1191.19 1334.06,1188.86 1343.5,1186.5 Z"/></g>
<g><path style="opacity:1" fill="#f9ecde" d="M 1041.5,1170.5 C 1048.25,1174.08 1055.25,1177.08 1062.5,1179.5C 1069.8,1182.94 1077.47,1185.6 1085.5,1187.5C 1091.78,1190.48 1098.44,1192.48 1105.5,1193.5C 1114.16,1196.57 1123.16,1198.9 1132.5,1200.5C 1138.95,1201.89 1145.28,1203.22 1151.5,1204.5C 1148.48,1204.34 1145.48,1204.5 1142.5,1205C 1143.86,1205.93 1145.19,1206.77 1146.5,1207.5C 1126.03,1203.93 1106.03,1198.6 1086.5,1191.5C 1078.5,1188.38 1070.5,1185.05 1062.5,1181.5C 1055.42,1178.69 1048.42,1175.69 1041.5,1172.5C 1039.62,1171.25 1037.62,1170.08 1035.5,1169C 1037.57,1168.96 1039.57,1169.46 1041.5,1170.5 Z"/></g>
<g><path style="opacity:1" fill="#9f633c" d="M 1043.5,1185.5 C 1050.47,1187.99 1057.14,1190.99 1063.5,1194.5C 1063.84,1196.48 1063.18,1197.82 1061.5,1198.5C 1054.6,1196.38 1047.94,1193.72 1041.5,1190.5C 1041.08,1188.22 1041.74,1186.55 1043.5,1185.5 Z"/></g>
<g><path style="opacity:1" fill="#b18263" d="M 1108.5,1189.5 C 1116.9,1191.35 1125.23,1193.35 1133.5,1195.5C 1132.7,1197.04 1132.37,1198.71 1132.5,1200.5C 1123.16,1198.9 1114.16,1196.57 1105.5,1193.5C 1106.5,1193.5 1107.5,1193.5 1108.5,1193.5C 1108.5,1192.17 1108.5,1190.83 1108.5,1189.5 Z"/></g>
<g><path style="opacity:1" fill="#a2643b" d="M 1501.5,1119.5 C 1498.48,1123.53 1495.15,1127.37 1491.5,1131C 1492.69,1132.09 1494.03,1132.93 1495.5,1133.5C 1450.37,1168.07 1400.37,1193.73 1345.5,1210.5C 1344.74,1209.73 1343.74,1209.23 1342.5,1209C 1343.81,1207.61 1343.48,1206.61 1341.5,1206C 1336.84,1205.83 1332.17,1206 1327.5,1206.5C 1348.96,1200.62 1370.3,1193.79 1391.5,1186C 1432.25,1170.14 1468.92,1147.98 1501.5,1119.5 Z"/></g>
<g><path style="opacity:1" fill="#9a694a" d="M 1315.5,1193.5 C 1316.49,1193.33 1317.16,1193.66 1317.5,1194.5C 1310.46,1196.83 1303.12,1198.17 1295.5,1198.5C 1295.5,1199.5 1295.5,1200.5 1295.5,1201.5C 1270.19,1202.88 1244.85,1203.88 1219.5,1204.5C 1199.75,1204.95 1180.08,1203.95 1160.5,1201.5C 1160.14,1200.82 1159.8,1200.15 1159.5,1199.5C 1211.84,1206.38 1263.84,1204.38 1315.5,1193.5 Z"/></g>
<g><path style="opacity:1" fill="#b08162" d="M 1063.5,1194.5 C 1069.38,1196.13 1075.05,1198.13 1080.5,1200.5C 1076.99,1199.95 1073.99,1200.61 1071.5,1202.5C 1067.85,1201.73 1064.52,1200.4 1061.5,1198.5C 1063.18,1197.82 1063.84,1196.48 1063.5,1194.5 Z"/></g>
<g><path style="opacity:1" fill="#9c643f" d="M 1133.5,1195.5 C 1141.35,1196.53 1149.02,1197.86 1156.5,1199.5C 1154.32,1200.1 1152.15,1200.77 1150,1201.5C 1147.5,1199.52 1144.67,1199.02 1141.5,1200C 1142.67,1200.42 1143.67,1201.09 1144.5,1202C 1154.67,1203.18 1164.67,1204.68 1174.5,1206.5C 1166.8,1206.21 1159.13,1205.54 1151.5,1204.5C 1145.28,1203.22 1138.95,1201.89 1132.5,1200.5C 1132.37,1198.71 1132.7,1197.04 1133.5,1195.5 Z"/></g>
<g><path style="opacity:1" fill="#9f6037" d="M 1317.5,1194.5 C 1318.4,1195.29 1319.07,1196.29 1319.5,1197.5C 1277.56,1207.59 1234.89,1211.43 1191.5,1209C 1185.65,1208.41 1179.99,1207.58 1174.5,1206.5C 1164.67,1204.68 1154.67,1203.18 1144.5,1202C 1143.67,1201.09 1142.67,1200.42 1141.5,1200C 1144.67,1199.02 1147.5,1199.52 1150,1201.5C 1152.15,1200.77 1154.32,1200.1 1156.5,1199.5C 1157.5,1199.5 1158.5,1199.5 1159.5,1199.5C 1159.8,1200.15 1160.14,1200.82 1160.5,1201.5C 1180.08,1203.95 1199.75,1204.95 1219.5,1204.5C 1244.85,1203.88 1270.19,1202.88 1295.5,1201.5C 1295.5,1200.5 1295.5,1199.5 1295.5,1198.5C 1303.12,1198.17 1310.46,1196.83 1317.5,1194.5 Z"/></g>
<g><path style="opacity:1" fill="#95694c" d="M 1325.5,1206.5 C 1323.27,1208.2 1320.6,1209.36 1317.5,1210C 1299.63,1213.1 1281.63,1214.93 1263.5,1215.5C 1284.15,1213.39 1304.82,1210.39 1325.5,1206.5 Z"/></g>
<g><path style="opacity:1" fill="#9c613b" d="M 1086.5,1191.5 C 1106.03,1198.6 1126.03,1203.93 1146.5,1207.5C 1184.01,1215.87 1222.01,1218.53 1260.5,1215.5C 1261.26,1216.27 1262.26,1216.77 1263.5,1217C 1259.83,1217.33 1256.17,1217.67 1252.5,1218C 1234.47,1217.84 1216.8,1218.68 1199.5,1220.5C 1171.32,1218.75 1143.65,1214.08 1116.5,1206.5C 1106.03,1203.41 1095.7,1200.08 1085.5,1196.5C 1085.22,1194.59 1085.55,1192.92 1086.5,1191.5 Z"/></g>
<g><path style="opacity:1" fill="#a15f34" d="M 1345.5,1210.5 C 1317.5,1219.28 1288.83,1224.61 1259.5,1226.5C 1235.83,1227.68 1212.17,1227.68 1188.5,1226.5C 1183.34,1226.41 1178.34,1225.58 1173.5,1224C 1176.63,1223.24 1179.79,1222.74 1183,1222.5C 1188.48,1223.25 1193.98,1223.58 1199.5,1223.5C 1214.84,1223.67 1230.17,1223.5 1245.5,1223C 1246.17,1222.67 1246.83,1222.33 1247.5,1222C 1236.17,1221.5 1224.84,1221.33 1213.5,1221.5C 1208.85,1221 1204.18,1220.67 1199.5,1220.5C 1216.8,1218.68 1234.47,1217.84 1252.5,1218C 1256.17,1217.67 1259.83,1217.33 1263.5,1217C 1262.26,1216.77 1261.26,1216.27 1260.5,1215.5C 1261.5,1215.5 1262.5,1215.5 1263.5,1215.5C 1281.63,1214.93 1299.63,1213.1 1317.5,1210C 1320.6,1209.36 1323.27,1208.2 1325.5,1206.5C 1326.17,1206.5 1326.83,1206.5 1327.5,1206.5C 1332.17,1206 1336.84,1205.83 1341.5,1206C 1343.48,1206.61 1343.81,1207.61 1342.5,1209C 1343.74,1209.23 1344.74,1209.73 1345.5,1210.5 Z"/></g>
<g><path style="opacity:1" fill="#f9ecde" d="M 1116.5,1206.5 C 1143.65,1214.08 1171.32,1218.75 1199.5,1220.5C 1204.18,1220.67 1208.85,1221 1213.5,1221.5C 1209.03,1222.49 1204.36,1222.82 1199.5,1222.5C 1170.2,1221.32 1141.53,1216.98 1113.5,1209.5C 1116.19,1209.66 1118.85,1209.5 1121.5,1209C 1119.35,1208.9 1117.68,1208.07 1116.5,1206.5 Z"/></g>
<g><path style="opacity:1" fill="#9d633d" d="M 1080.5,1200.5 C 1091.4,1203.88 1102.4,1206.88 1113.5,1209.5C 1141.53,1216.98 1170.2,1221.32 1199.5,1222.5C 1199.5,1222.83 1199.5,1223.17 1199.5,1223.5C 1193.98,1223.58 1188.48,1223.25 1183,1222.5C 1179.79,1222.74 1176.63,1223.24 1173.5,1224C 1178.34,1225.58 1183.34,1226.41 1188.5,1226.5C 1212.17,1227.68 1235.83,1227.68 1259.5,1226.5C 1195.04,1232.61 1132.37,1224.61 1071.5,1202.5C 1073.99,1200.61 1076.99,1199.95 1080.5,1200.5 Z"/></g>
<g><path style="opacity:1" fill="#e2c3ae" d="M 1213.5,1221.5 C 1224.84,1221.33 1236.17,1221.5 1247.5,1222C 1246.83,1222.33 1246.17,1222.67 1245.5,1223C 1230.17,1223.5 1214.84,1223.67 1199.5,1223.5C 1199.5,1223.17 1199.5,1222.83 1199.5,1222.5C 1204.36,1222.82 1209.03,1222.49 1213.5,1221.5 Z"/></g>
</svg>
