<svg width="157" height="26" viewBox="0 0 157 26" fill="none" xmlns="http://www.w3.org/2000/svg">
<path d="M0.207275 11.1064C0.207275 9.84115 0.409424 8.68441 0.813721 7.63623C1.21802 6.58057 1.82072 5.67464 2.62183 4.91846C3.42293 4.16227 4.42244 3.57454 5.62036 3.15527C6.81828 2.736 8.21086 2.52637 9.7981 2.52637C11.3853 2.52637 12.7779 2.736 13.9758 3.15527C15.1737 3.57454 16.1733 4.16227 16.9744 4.91846C17.7755 5.67464 18.3782 6.58057 18.7825 7.63623C19.1868 8.68441 19.3889 9.84115 19.3889 11.1064C19.3889 12.3867 19.1868 13.5584 18.7825 14.6216C18.3782 15.6847 17.7755 16.5944 16.9744 17.3506C16.1733 18.1068 15.1737 18.6945 13.9758 19.1138C12.7779 19.533 11.3853 19.7427 9.7981 19.7427C8.21086 19.7427 6.81828 19.533 5.62036 19.1138C4.42244 18.6945 3.42293 18.1068 2.62183 17.3506C1.82072 16.5944 1.21802 15.6847 0.813721 14.6216C0.409424 13.5584 0.207275 12.3867 0.207275 11.1064ZM9.7981 17.418C10.2473 17.418 10.6441 17.3394 10.9885 17.1821C11.3329 17.0249 11.6212 16.7179 11.8533 16.2612C12.0854 15.8045 12.2613 15.1644 12.3811 14.3408C12.5009 13.5173 12.5608 12.4391 12.5608 11.1064C12.5608 9.78874 12.5009 8.72184 12.3811 7.90576C12.2613 7.08968 12.0854 6.45703 11.8533 6.00781C11.6212 5.55859 11.3329 5.25537 10.9885 5.09814C10.6441 4.94092 10.2473 4.8623 9.7981 4.8623C9.34888 4.8623 8.94832 4.94092 8.59644 5.09814C8.25203 5.25537 7.96379 5.55859 7.73169 6.00781C7.49959 6.45703 7.32365 7.08968 7.20386 7.90576C7.08407 8.72184 7.02417 9.78874 7.02417 11.1064C7.02417 12.4391 7.08407 13.5173 7.20386 14.3408C7.32365 15.1644 7.49959 15.8045 7.73169 16.2612C7.96379 16.7179 8.25203 17.0249 8.59644 17.1821C8.94832 17.3394 9.34888 17.418 9.7981 17.418ZM22.1179 8.35498H27.4973L28.0364 9.97217C28.4631 9.65771 28.8637 9.38818 29.238 9.16357C29.6199 8.93148 29.9867 8.74056 30.3386 8.59082C30.698 8.43359 31.0424 8.32129 31.3718 8.25391C31.7087 8.17904 32.0419 8.1416 32.3713 8.1416C32.8505 8.1416 33.281 8.20898 33.6628 8.34375C34.0522 8.47852 34.3816 8.66943 34.6511 8.9165C34.9281 9.16357 35.1378 9.45931 35.28 9.80371C35.4298 10.1406 35.5046 10.515 35.5046 10.9268C35.5046 11.3385 35.4148 11.7166 35.2351 12.061C35.0629 12.4054 34.8083 12.7049 34.4714 12.9595C34.1345 13.2065 33.719 13.4012 33.2249 13.5435C32.7382 13.6782 32.1804 13.7456 31.5515 13.7456L29.575 11.1064C29.3578 11.1064 29.122 11.1514 28.8674 11.2412C28.6129 11.3311 28.3958 11.4733 28.2161 11.668V19.4844H22.1179V8.35498ZM36.5266 13.9253C36.5266 13.0493 36.6764 12.2557 36.9758 11.5444C37.2828 10.8332 37.7208 10.2267 38.2898 9.7251C38.8588 9.21598 39.5476 8.82666 40.3562 8.55713C41.1723 8.28011 42.0857 8.1416 43.0964 8.1416C43.8676 8.1416 44.5601 8.23519 45.1741 8.42236C45.788 8.60205 46.3158 8.84163 46.7576 9.14111V0.942871H52.8557V19.4844H47.2405L46.78 18.0918C46.5704 18.2939 46.3196 18.4924 46.0276 18.687C45.7356 18.8817 45.4137 19.0539 45.0618 19.2036C44.7099 19.3534 44.328 19.4731 43.9163 19.563C43.512 19.6528 43.0852 19.6978 42.636 19.6978C41.79 19.6978 40.9963 19.5742 40.2551 19.3271C39.5139 19.0801 38.8663 18.717 38.3123 18.2378C37.7582 17.7511 37.3202 17.1484 36.9983 16.4297C36.6838 15.7035 36.5266 14.8687 36.5266 13.9253ZM42.8157 13.7119C42.8157 14.3558 42.8756 14.9061 42.9954 15.3628C43.1226 15.8195 43.2948 16.1938 43.512 16.4858C43.7291 16.7703 43.9874 16.98 44.2869 17.1147C44.5863 17.2495 44.9158 17.3169 45.2751 17.3169C45.5597 17.3169 45.8254 17.2682 46.0725 17.1709C46.3271 17.0661 46.5554 16.9351 46.7576 16.7778V10.6235C46.5704 10.4588 46.357 10.3315 46.1174 10.2417C45.8853 10.1519 45.657 10.1069 45.4324 10.1069C45.058 10.1069 44.7099 10.1781 44.3879 10.3203C44.0735 10.4551 43.7965 10.6685 43.5569 10.9604C43.3248 11.2524 43.1414 11.6268 43.0066 12.0835C42.8793 12.5327 42.8157 13.0755 42.8157 13.7119ZM55.2815 13.8579C55.2815 13.214 55.3826 12.6263 55.5847 12.0947C55.7869 11.5632 56.0639 11.0877 56.4158 10.6685C56.7751 10.2417 57.1982 9.87109 57.6848 9.55664C58.1715 9.24219 58.6993 8.98014 59.2683 8.77051C59.8373 8.56087 60.4325 8.40365 61.054 8.29883C61.6754 8.19401 62.3043 8.1416 62.9407 8.1416C63.7792 8.1416 64.5391 8.2277 65.2205 8.3999C65.9093 8.56462 66.5194 8.79297 67.051 9.08496C67.5901 9.37695 68.0543 9.71761 68.4436 10.1069C68.8404 10.4963 69.1661 10.9118 69.4207 11.3535C69.6827 11.7878 69.8736 12.237 69.9934 12.7012C70.1207 13.1654 70.1843 13.6183 70.1843 14.0601L61.6941 15.082C61.8588 15.9131 62.1882 16.557 62.6824 17.0137C63.1765 17.4704 63.8691 17.6987 64.76 17.6987C65.2467 17.6987 65.6996 17.6388 66.1189 17.519C66.5457 17.3993 66.8788 17.2533 67.1184 17.0811L68.0168 18.6533C67.7398 18.7956 67.4366 18.9303 67.1072 19.0576C66.7852 19.1849 66.4259 19.2972 66.0291 19.3945C65.6397 19.4844 65.2055 19.5555 64.7263 19.6079C64.2546 19.6678 63.7343 19.6978 63.1653 19.6978C61.8027 19.6978 60.6272 19.5405 59.6389 19.2261C58.6506 18.9041 57.8308 18.4774 57.1794 17.9458C56.5356 17.4067 56.0564 16.7853 55.7419 16.0815C55.435 15.3778 55.2815 14.6366 55.2815 13.8579ZM64.7375 12.9146C64.7375 11.9412 64.614 11.2337 64.3669 10.792C64.1274 10.3503 63.768 10.1294 63.2888 10.1294C63.0417 10.1294 62.8134 10.1893 62.6038 10.3091C62.3941 10.4289 62.2144 10.616 62.0647 10.8706C61.915 11.1252 61.7952 11.4546 61.7053 11.8589C61.6155 12.2557 61.5668 12.7386 61.5593 13.3076L64.7375 12.9146ZM72.2957 8.35498H77.675L78.2141 9.97217C78.6409 9.65771 79.0414 9.38818 79.4158 9.16357C79.7976 8.93148 80.1645 8.74056 80.5164 8.59082C80.8757 8.43359 81.2201 8.32129 81.5496 8.25391C81.8865 8.17904 82.2196 8.1416 82.5491 8.1416C83.0282 8.1416 83.4587 8.20898 83.8406 8.34375C84.2299 8.47852 84.5593 8.66943 84.8289 8.9165C85.1059 9.16357 85.3155 9.45931 85.4578 9.80371C85.6075 10.1406 85.6824 10.515 85.6824 10.9268C85.6824 11.3385 85.5925 11.7166 85.4128 12.061C85.2406 12.4054 84.9861 12.7049 84.6492 12.9595C84.3123 13.2065 83.8967 13.4012 83.4026 13.5435C82.9159 13.6782 82.3582 13.7456 81.7292 13.7456L79.7527 11.1064C79.5356 11.1064 79.2997 11.1514 79.0452 11.2412C78.7906 11.3311 78.5735 11.4733 78.3938 11.668V19.4844H72.2957V8.35498ZM87.4343 0.942871H93.5325V19.4844H87.4343V0.942871ZM95.1497 8.35498H101.529L104.224 15.2505L106.919 8.35498H109.918L105.134 19.709C104.827 20.4277 104.497 21.0641 104.145 21.6182C103.793 22.1722 103.385 22.6589 102.921 23.0781C102.464 23.5049 101.94 23.8755 101.349 24.1899C100.757 24.5044 100.076 24.7852 99.3049 25.0322L98.5188 23.1904C99.1178 22.9808 99.6381 22.7412 100.08 22.4717C100.522 22.2096 100.896 21.9326 101.203 21.6406C101.51 21.3561 101.757 21.0679 101.944 20.7759C102.139 20.4839 102.288 20.2069 102.393 19.9448L102.573 19.4731H99.8552L95.1497 8.35498ZM112.231 2.7959H116.824L123.136 11.5332L129.133 2.7959H133.603V19.4844H127.123V10.9604L120.901 19.6978L114.702 10.9604V19.4844H112.231V2.7959ZM137.882 2.7959H144.743C146.675 2.7959 148.348 2.97933 149.763 3.34619C151.178 3.70557 152.35 4.23714 153.279 4.94092C154.207 5.64469 154.896 6.50944 155.345 7.53516C155.794 8.56087 156.019 9.73633 156.019 11.0615C156.019 12.2445 155.794 13.3488 155.345 14.3745C154.896 15.3927 154.207 16.2837 153.279 17.0474C152.35 17.8035 151.178 18.3988 149.763 18.833C148.348 19.2673 146.675 19.4844 144.743 19.4844H137.882V2.7959ZM144.373 17.0361C145.122 17.0361 145.795 16.9201 146.394 16.688C146.993 16.4559 147.499 16.0965 147.91 15.6099C148.33 15.1232 148.648 14.5055 148.865 13.7568C149.09 13.0007 149.202 12.0985 149.202 11.0503C149.202 10.0096 149.09 9.1224 148.865 8.38867C148.64 7.65495 148.318 7.05599 147.899 6.5918C147.48 6.12012 146.971 5.77946 146.372 5.56982C145.78 5.3527 145.118 5.24414 144.384 5.24414L144.373 17.0361Z" fill="black"/>
</svg>
